<?xml version="1.0" encoding="utf-8" standalone="no"?>
<!DOCTYPE svg PUBLIC "-//W3C//DTD SVG 1.1//EN"
  "http://www.w3.org/Graphics/SVG/1.1/DTD/svg11.dtd">
<!-- Created with matplotlib (https://matplotlib.org/) -->
<svg height="100.8pt" version="1.1" viewBox="0 0 360 100.8" width="360pt" xmlns="http://www.w3.org/2000/svg" xmlns:xlink="http://www.w3.org/1999/xlink">
 <metadata>
  <rdf:RDF xmlns:cc="http://creativecommons.org/ns#" xmlns:dc="http://purl.org/dc/elements/1.1/" xmlns:rdf="http://www.w3.org/1999/02/22-rdf-syntax-ns#">
   <cc:Work>
    <dc:type rdf:resource="http://purl.org/dc/dcmitype/StillImage"/>
    <dc:date>2021-05-12T12:33:45.232806</dc:date>
    <dc:format>image/svg+xml</dc:format>
    <dc:creator>
     <cc:Agent>
      <dc:title>Matplotlib v3.3.3, https://matplotlib.org/</dc:title>
     </cc:Agent>
    </dc:creator>
   </cc:Work>
  </rdf:RDF>
 </metadata>
 <defs>
  <style type="text/css">*{stroke-linecap:butt;stroke-linejoin:round;}</style>
 </defs>
 <g id="figure_1">
  <g id="patch_1">
   <path d="M 0 100.8 
L 360 100.8 
L 360 0 
L 0 0 
z
" style="fill:none;"/>
  </g>
  <g id="text_1">
   <!-- eslaslsa -->
   <g style="fill:#e6e6e6;" transform="translate(36 60.48)scale(0.7 -0.7)">
    <defs>
     <path d="M 24.21875 41.796875 
Q 21.734375 41.796875 19.625 40.8125 
Q 17.53125 39.84375 15.890625 38.078125 
Q 14.265625 36.328125 13.15625 33.828125 
Q 12.0625 31.34375 11.578125 28.328125 
L 32.421875 28.328125 
Q 33.546875 28.328125 33.90625 28.6875 
Q 34.28125 29.046875 34.28125 30.078125 
Q 34.28125 30.953125 34.125 32.171875 
Q 33.984375 33.40625 33.5625 34.6875 
Q 33.15625 35.984375 32.4375 37.25 
Q 31.734375 38.53125 30.609375 39.53125 
Q 29.5 40.53125 27.90625 41.15625 
Q 26.3125 41.796875 24.21875 41.796875 
z
M 42.28125 27.203125 
Q 41.40625 26.21875 39.9375 25.390625 
Q 38.484375 24.5625 36.921875 23.921875 
L 11.234375 23.921875 
L 11.234375 23.78125 
Q 11.234375 20.125 12.234375 16.71875 
Q 13.234375 13.328125 15.078125 10.71875 
Q 16.9375 8.109375 19.625 6.546875 
Q 22.3125 4.984375 25.6875 4.984375 
Q 27.203125 4.984375 28.640625 5.15625 
Q 30.078125 5.328125 31.734375 5.984375 
Q 33.40625 6.640625 35.421875 7.953125 
Q 37.453125 9.28125 40.1875 11.53125 
Q 40.828125 11.1875 41.28125 10.546875 
Q 41.75 9.90625 42 9.515625 
Q 38.71875 5.953125 36.25 3.78125 
Q 33.796875 1.609375 31.609375 0.4375 
Q 29.4375 -0.734375 27.3125 -1.09375 
Q 25.203125 -1.46875 22.703125 -1.46875 
Q 18.953125 -1.46875 15.546875 0.140625 
Q 12.15625 1.765625 9.5625 4.71875 
Q 6.984375 7.671875 5.4375 11.84375 
Q 3.90625 16.015625 3.90625 21.1875 
Q 3.90625 24.46875 4.640625 27.640625 
Q 5.375 30.8125 6.765625 33.640625 
Q 8.15625 36.46875 10.15625 38.859375 
Q 12.15625 41.265625 14.703125 43.015625 
Q 15.765625 43.75 17.109375 44.453125 
Q 18.453125 45.171875 19.921875 45.703125 
Q 21.390625 46.234375 22.828125 46.546875 
Q 24.265625 46.875 25.59375 46.875 
Q 28.8125 46.875 31.265625 46 
Q 33.734375 45.125 35.59375 43.625 
Q 37.453125 42.140625 38.71875 40.15625 
Q 39.984375 38.1875 40.796875 35.984375 
Q 41.609375 33.796875 41.9375 31.515625 
Q 42.28125 29.25 42.28125 27.203125 
z
" id="Gentium-101"/>
     <path d="M 34.1875 13.8125 
Q 34.1875 10.359375 33.203125 7.890625 
Q 32.234375 5.421875 30.671875 3.703125 
Q 29.109375 2 27.203125 0.96875 
Q 25.296875 -0.046875 23.4375 -0.578125 
Q 21.578125 -1.125 19.9375 -1.296875 
Q 18.3125 -1.46875 17.390625 -1.46875 
Q 15.046875 -1.46875 11.75 -0.578125 
Q 8.453125 0.296875 5.171875 2.09375 
Q 4.828125 2.25 4.703125 3.6875 
Q 4.59375 5.125 4.65625 7 
Q 4.734375 8.890625 4.953125 10.796875 
Q 5.171875 12.703125 5.515625 13.8125 
L 7.625 13.28125 
Q 7.71875 11.234375 8.6875 9.421875 
Q 9.671875 7.625 11.296875 6.25 
Q 12.9375 4.890625 15.109375 4.109375 
Q 17.28125 3.328125 19.828125 3.328125 
Q 21.578125 3.328125 23.046875 3.875 
Q 24.515625 4.4375 25.578125 5.46875 
Q 26.65625 6.5 27.234375 7.9375 
Q 27.828125 9.375 27.828125 11.078125 
Q 27.828125 13.03125 26.78125 14.546875 
Q 25.734375 16.0625 24.015625 17.3125 
Q 22.3125 18.5625 20.140625 19.65625 
Q 17.96875 20.75 15.71875 21.921875 
Q 13.671875 22.953125 11.765625 24.125 
Q 9.859375 25.296875 8.375 26.75 
Q 6.890625 28.21875 5.984375 30.03125 
Q 5.078125 31.84375 5.078125 34.1875 
Q 5.078125 37.203125 6.296875 39.5625 
Q 7.515625 41.9375 9.546875 43.546875 
Q 11.578125 45.171875 14.1875 46.015625 
Q 16.796875 46.875 19.578125 46.875 
Q 21.09375 46.875 22.921875 46.609375 
Q 24.75 46.34375 26.53125 45.84375 
Q 28.328125 45.359375 29.890625 44.671875 
Q 31.453125 44 32.421875 43.109375 
Q 32.71875 42.828125 32.5 41.796875 
Q 32.28125 40.765625 31.8125 39.546875 
Q 31.34375 38.328125 30.8125 37.25 
Q 30.28125 36.1875 29.984375 35.796875 
L 28.078125 36.1875 
Q 25.734375 39.703125 23.21875 41.09375 
Q 20.703125 42.484375 18.3125 42.484375 
Q 16.703125 42.484375 15.421875 41.9375 
Q 14.15625 41.40625 13.25 40.546875 
Q 12.359375 39.703125 11.890625 38.671875 
Q 11.421875 37.640625 11.421875 36.625 
Q 11.421875 35.0625 12.34375 33.8125 
Q 13.28125 32.5625 14.796875 31.46875 
Q 16.3125 30.375 18.234375 29.375 
Q 20.171875 28.375 22.21875 27.296875 
Q 24.3125 26.21875 26.453125 25 
Q 28.609375 23.78125 30.3125 22.1875 
Q 32.03125 20.609375 33.109375 18.578125 
Q 34.1875 16.546875 34.1875 13.8125 
z
" id="Gentium-115"/>
     <path d="M 2.9375 0 
L 2.9375 2.09375 
Q 5.03125 2.4375 6.4375 2.796875 
Q 7.859375 3.171875 8.6875 3.53125 
Q 9.515625 3.90625 9.875 4.296875 
Q 10.25 4.6875 10.25 5.078125 
L 10.25 63.28125 
Q 10.25 65.484375 9.953125 66.703125 
Q 9.671875 67.921875 8.890625 68.53125 
Q 8.109375 69.140625 6.78125 69.359375 
Q 5.46875 69.578125 3.421875 69.828125 
L 3.421875 71.78125 
Q 6.9375 72.46875 9.859375 73.296875 
Q 12.796875 74.125 15.828125 75.6875 
L 17.578125 74.03125 
L 17.578125 5.078125 
Q 17.578125 4.34375 19.234375 3.5625 
Q 20.90625 2.78125 24.90625 2.09375 
L 24.90625 0 
z
" id="Gentium-108"/>
     <path d="M 17.1875 4.890625 
Q 20.125 4.890625 23.40625 6.375 
Q 26.703125 7.859375 30.421875 11.078125 
L 30.421875 23.828125 
L 24.609375 22.703125 
Q 21.296875 22.125 18.875 21 
Q 16.453125 19.875 14.890625 18.359375 
Q 13.328125 16.84375 12.59375 15.015625 
Q 11.859375 13.1875 11.859375 11.1875 
Q 11.859375 9.234375 12.4375 8 
Q 13.03125 6.78125 13.890625 6.078125 
Q 14.75 5.375 15.640625 5.125 
Q 16.546875 4.890625 17.1875 4.890625 
z
M 45.21875 4 
Q 41.0625 1.125 38.34375 -0.171875 
Q 35.640625 -1.46875 34.28125 -1.46875 
Q 32.671875 -1.46875 31.59375 0.78125 
Q 30.515625 3.03125 30.421875 6.984375 
Q 28.21875 4.78125 26.015625 3.171875 
Q 23.828125 1.5625 21.71875 0.53125 
Q 19.625 -0.484375 17.75 -0.96875 
Q 15.875 -1.46875 14.3125 -1.46875 
Q 12.546875 -1.46875 10.6875 -0.875 
Q 8.84375 -0.296875 7.34375 0.96875 
Q 5.859375 2.25 4.875 4.25 
Q 3.90625 6.25 3.90625 9.078125 
Q 3.90625 11.96875 4.953125 14.578125 
Q 6 17.1875 8.078125 19.328125 
Q 10.15625 21.484375 13.234375 23.0625 
Q 16.3125 24.65625 20.40625 25.484375 
L 30.421875 27.484375 
L 30.421875 34.28125 
Q 30.421875 35.9375 30.03125 37.375 
Q 29.640625 38.8125 28.703125 39.859375 
Q 27.78125 40.921875 26.1875 41.484375 
Q 24.609375 42.046875 22.21875 42 
Q 20.65625 41.9375 19.140625 41.453125 
Q 17.625 40.96875 16.5 40.078125 
Q 15.375 39.203125 14.734375 38 
Q 14.109375 36.8125 14.265625 35.359375 
Q 14.3125 34.90625 13.25 34.34375 
Q 12.203125 33.796875 10.765625 33.34375 
Q 9.328125 32.90625 7.9375 32.65625 
Q 6.546875 32.421875 5.953125 32.5625 
L 5.28125 34.46875 
Q 6.390625 36.921875 8.6875 39.15625 
Q 10.984375 41.40625 13.9375 43.109375 
Q 16.890625 44.828125 20.1875 45.84375 
Q 23.484375 46.875 26.5625 46.875 
Q 31.9375 46.875 34.84375 44.0625 
Q 37.75 41.265625 37.75 36.234375 
L 37.75 8.6875 
Q 37.75 6.640625 38.28125 5.765625 
Q 38.8125 4.890625 39.703125 4.890625 
Q 40.375 4.890625 41.453125 5.125 
Q 42.53125 5.375 44.484375 6.203125 
L 45.21875 4 
z
" id="Gentium-97"/>
    </defs>
    <use xlink:href="#Gentium-101"/>
    <use x="46.191406" xlink:href="#Gentium-115"/>
    <use x="84.814453" xlink:href="#Gentium-108"/>
    <use x="111.914062" xlink:href="#Gentium-97"/>
    <use x="157.8125" xlink:href="#Gentium-115"/>
    <use x="196.435547" xlink:href="#Gentium-108"/>
    <use x="223.535156" xlink:href="#Gentium-115"/>
    <use x="262.158203" xlink:href="#Gentium-97"/>
   </g>
  </g>
  <g id="text_2">
   <!-- amlerele -->
   <g style="fill:#cccccc;" transform="translate(18 75.6)scale(0.7 -0.7)">
    <defs>
     <path d="M 57.90625 0 
L 57.90625 2.09375 
Q 61.421875 3.03125 63.0625 3.703125 
Q 64.703125 4.390625 64.703125 5.078125 
L 64.703125 30.90625 
Q 64.703125 33.890625 64.375 35.859375 
Q 64.0625 37.84375 63.40625 38.96875 
Q 62.75 40.09375 61.6875 40.546875 
Q 60.640625 41.015625 59.1875 41.015625 
Q 57.5625 41.015625 55.75 40.109375 
Q 53.953125 39.203125 52.046875 37.515625 
Q 50.140625 35.84375 48.21875 33.421875 
Q 46.296875 31 44.4375 27.984375 
L 44.4375 5.078125 
Q 44.4375 4.390625 45.953125 3.734375 
Q 47.46875 3.078125 51.3125 2.09375 
L 51.3125 0 
L 30.328125 0 
L 30.328125 2.09375 
Q 33.84375 3.03125 35.46875 3.703125 
Q 37.109375 4.390625 37.109375 5.078125 
L 37.109375 30.90625 
Q 37.109375 33.890625 36.8125 35.859375 
Q 36.53125 37.84375 35.859375 38.96875 
Q 35.203125 40.09375 34.15625 40.546875 
Q 33.109375 41.015625 31.59375 41.015625 
Q 28.265625 41.015625 24.625 37.59375 
Q 21 34.1875 16.84375 27.984375 
L 16.84375 5.078125 
Q 16.84375 4.34375 18.671875 3.5625 
Q 20.515625 2.78125 23.6875 2.09375 
L 23.6875 0 
L 2.6875 0 
L 2.6875 2.09375 
Q 5.90625 2.9375 7.703125 3.59375 
Q 9.515625 4.25 9.515625 5.078125 
L 9.515625 34.71875 
Q 9.515625 36.671875 9.34375 37.796875 
Q 9.1875 38.921875 8.46875 39.53125 
Q 7.765625 40.140625 6.390625 40.421875 
Q 5.03125 40.71875 2.6875 41.015625 
L 2.6875 42.96875 
Q 4.546875 43.265625 6.109375 43.671875 
Q 7.671875 44.09375 9.078125 44.578125 
Q 10.5 45.0625 11.796875 45.640625 
Q 13.09375 46.234375 14.40625 46.875 
L 16.109375 45.171875 
L 16.65625 33.984375 
Q 18.84375 37.203125 21.09375 39.625 
Q 23.34375 42.046875 25.53125 43.65625 
Q 27.734375 45.265625 29.78125 46.0625 
Q 31.84375 46.875 33.59375 46.875 
Q 35.9375 46.875 37.90625 46.28125 
Q 39.890625 45.703125 41.328125 44.328125 
Q 42.78125 42.96875 43.609375 40.765625 
Q 44.4375 38.578125 44.4375 35.296875 
L 44.4375 34.375 
Q 46.484375 37.453125 48.671875 39.765625 
Q 50.875 42.09375 53.046875 43.671875 
Q 55.21875 45.265625 57.296875 46.0625 
Q 59.375 46.875 61.1875 46.875 
Q 63.53125 46.875 65.5 46.234375 
Q 67.484375 45.609375 68.921875 44.28125 
Q 70.359375 42.96875 71.1875 40.9375 
Q 72.015625 38.921875 72.015625 36.1875 
L 72.015625 5.078125 
Q 72.015625 4.390625 73.53125 3.734375 
Q 75.046875 3.078125 78.90625 2.09375 
L 78.90625 0 
z
" id="Gentium-109"/>
     <path d="M 37.59375 45.0625 
Q 38.03125 44.78125 38 43.359375 
Q 37.984375 41.9375 37.609375 40.078125 
Q 37.25 38.234375 36.65625 36.28125 
Q 36.078125 34.328125 35.5 33.015625 
L 33.40625 33.015625 
Q 33.109375 34.96875 32.5625 36.328125 
Q 32.03125 37.703125 31.3125 38.5 
Q 30.609375 39.3125 29.75 39.671875 
Q 28.90625 40.046875 27.984375 40.046875 
Q 26.90625 40.046875 25.46875 39.140625 
Q 24.03125 38.234375 22.515625 36.296875 
Q 21 34.375 19.5 31.375 
Q 18.015625 28.375 16.84375 24.21875 
L 16.84375 5.078125 
Q 16.84375 4.34375 18.671875 3.5625 
Q 20.515625 2.78125 25.09375 2.09375 
L 25.09375 0 
L 2.6875 0 
L 2.6875 2.09375 
Q 5.90625 2.828125 7.703125 3.53125 
Q 9.515625 4.25 9.515625 5.078125 
L 9.515625 33.5 
Q 9.515625 35.109375 9.421875 36.203125 
Q 9.328125 37.3125 9.171875 37.984375 
Q 9.03125 38.671875 8.8125 39.0625 
Q 8.59375 39.453125 8.40625 39.703125 
Q 8.0625 40.046875 7.640625 40.265625 
Q 7.234375 40.484375 6.5625 40.625 
Q 5.90625 40.765625 4.96875 40.84375 
Q 4.046875 40.921875 2.6875 41.015625 
L 2.6875 42.96875 
Q 5.859375 43.796875 8.90625 44.65625 
Q 11.96875 45.515625 14.40625 46.875 
L 16.109375 45.171875 
L 16.75 34.078125 
Q 18.0625 36.765625 19.59375 39.109375 
Q 21.140625 41.453125 22.890625 43.1875 
Q 24.65625 44.921875 26.578125 45.890625 
Q 28.515625 46.875 30.609375 46.875 
Q 32.171875 46.875 33.984375 46.484375 
Q 35.796875 46.09375 37.59375 45.0625 
z
" id="Gentium-114"/>
    </defs>
    <use xlink:href="#Gentium-97"/>
    <use x="45.898438" xlink:href="#Gentium-109"/>
    <use x="126.220703" xlink:href="#Gentium-108"/>
    <use x="153.320312" xlink:href="#Gentium-101"/>
    <use x="199.511719" xlink:href="#Gentium-114"/>
    <use x="237.611328" xlink:href="#Gentium-101"/>
    <use x="283.802734" xlink:href="#Gentium-108"/>
    <use x="310.902344" xlink:href="#Gentium-101"/>
   </g>
  </g>
  <g id="axes_1">
   <g id="patch_2">
    <path d="M 45 88.2 
L 324 88.2 
L 324 12.096 
L 45 12.096 
z
" style="fill:none;"/>
   </g>
   <g id="matplotlib.axis_1">
    <g id="xtick_1"/>
    <g id="xtick_2"/>
    <g id="xtick_3"/>
    <g id="xtick_4"/>
    <g id="xtick_5"/>
    <g id="xtick_6"/>
   </g>
   <g id="matplotlib.axis_2">
    <g id="ytick_1"/>
    <g id="ytick_2"/>
    <g id="ytick_3"/>
   </g>
  </g>
  <g id="text_3">
   <!-- re -->
   <g style="fill:#ff0000;" transform="translate(0 90.72)scale(0.7 -0.7)">
    <use xlink:href="#Gentium-114"/>
    <use x="38.099609" xlink:href="#Gentium-101"/>
   </g>
  </g>
  <g id="text_4">
   <!-- sample -->
   <g style="fill:#333333;" transform="translate(61.2 90.72)scale(0.7 -0.7)">
    <defs>
     <path d="M 42.53125 20.796875 
Q 42.53125 25.046875 41.53125 28.703125 
Q 40.53125 32.375 38.84375 35.03125 
Q 37.15625 37.703125 34.953125 39.203125 
Q 32.765625 40.71875 30.421875 40.71875 
Q 29.546875 40.71875 28.125 40.1875 
Q 26.703125 39.65625 24.890625 38.40625 
Q 23.09375 37.15625 21.046875 35.03125 
Q 19 32.90625 16.84375 29.78125 
L 16.84375 10.40625 
Q 19.046875 8.734375 20.921875 7.65625 
Q 22.796875 6.59375 24.4375 5.984375 
Q 26.078125 5.375 27.53125 5.125 
Q 29 4.890625 30.328125 4.890625 
Q 32.953125 4.890625 35.171875 5.90625 
Q 37.40625 6.9375 39.03125 8.9375 
Q 40.671875 10.9375 41.59375 13.90625 
Q 42.53125 16.890625 42.53125 20.796875 
z
M 49.03125 24.03125 
Q 49.03125 21.1875 48.3125 18.203125 
Q 47.609375 15.234375 46.3125 12.40625 
Q 45.015625 9.578125 43.28125 7.03125 
Q 41.546875 4.5 39.46875 2.609375 
Q 37.40625 0.734375 35.109375 -0.359375 
Q 32.8125 -1.46875 30.421875 -1.46875 
Q 27.546875 -1.46875 23.921875 0.140625 
Q 20.3125 1.765625 16.84375 4.78125 
L 16.84375 -18.3125 
Q 16.84375 -19.09375 18.671875 -19.875 
Q 20.515625 -20.65625 25.09375 -21.34375 
L 25.09375 -23.4375 
L 2.6875 -23.4375 
L 2.6875 -21.34375 
Q 5.90625 -20.5625 7.703125 -19.84375 
Q 9.515625 -19.140625 9.515625 -18.3125 
L 9.515625 34.71875 
Q 9.515625 36.53125 9.3125 37.703125 
Q 9.125 38.875 8.421875 39.578125 
Q 7.71875 40.28125 6.375 40.59375 
Q 5.03125 40.921875 2.6875 41.015625 
L 2.6875 42.96875 
Q 4.34375 43.3125 5.859375 43.71875 
Q 7.375 44.140625 8.78125 44.59375 
Q 10.203125 45.0625 11.59375 45.625 
Q 12.984375 46.1875 14.40625 46.875 
L 16.109375 45.171875 
L 16.546875 35.5 
Q 19 38.421875 21.453125 40.5625 
Q 23.921875 42.71875 26.171875 44.109375 
Q 28.421875 45.515625 30.34375 46.1875 
Q 32.28125 46.875 33.6875 46.875 
Q 37.015625 46.875 39.8125 45.3125 
Q 42.625 43.75 44.671875 40.796875 
Q 46.734375 37.84375 47.875 33.59375 
Q 49.03125 29.34375 49.03125 24.03125 
z
" id="Gentium-112"/>
    </defs>
    <use xlink:href="#Gentium-115"/>
    <use x="38.623047" xlink:href="#Gentium-97"/>
    <use x="84.521484" xlink:href="#Gentium-109"/>
    <use x="164.84375" xlink:href="#Gentium-112"/>
    <use x="217.822266" xlink:href="#Gentium-108"/>
    <use x="244.921875" xlink:href="#Gentium-101"/>
   </g>
  </g>
 </g>
</svg>
