<?xml version="1.0" encoding="UTF-8" standalone="no"?>
<svg
   xmlns:dc="http://purl.org/dc/elements/1.1/"
   xmlns:cc="http://creativecommons.org/ns#"
   xmlns:rdf="http://www.w3.org/1999/02/22-rdf-syntax-ns#"
   xmlns:svg="http://www.w3.org/2000/svg"
   xmlns="http://www.w3.org/2000/svg"
   xmlns:xlink="http://www.w3.org/1999/xlink"
   xmlns:sodipodi="http://sodipodi.sourceforge.net/DTD/sodipodi-0.dtd"
   xmlns:inkscape="http://www.inkscape.org/namespaces/inkscape"
   height="99.627502pt"
   version="1.1"
   viewBox="0 0 263.34729 99.627499"
   width="263.34729pt"
   id="svg100"
   sodipodi:docname="resample_gentium.svg"
   inkscape:version="1.0.2 (e86c8708, 2021-01-15)">
  <sodipodi:namedview
     pagecolor="#ffffff"
     bordercolor="#666666"
     borderopacity="1"
     objecttolerance="10"
     gridtolerance="10"
     guidetolerance="10"
     inkscape:pageopacity="0"
     inkscape:pageshadow="2"
     inkscape:window-width="1302"
     inkscape:window-height="575"
     id="namedview102"
     showgrid="false"
     inkscape:zoom="1.641077"
     inkscape:cx="186.45811"
     inkscape:cy="59.334414"
     inkscape:window-x="0"
     inkscape:window-y="25"
     inkscape:window-maximized="0"
     inkscape:current-layer="layer3" />
  <metadata
     id="metadata2">
    <rdf:RDF>
      <cc:Work>
        <dc:type
           rdf:resource="http://purl.org/dc/dcmitype/StillImage" />
        <dc:date>2021-05-12T12:33:45.232806</dc:date>
        <dc:format>image/svg+xml</dc:format>
        <dc:creator>
          <cc:Agent>
            <dc:title>Matplotlib v3.3.3, https://matplotlib.org/</dc:title>
          </cc:Agent>
        </dc:creator>
      </cc:Work>
    </rdf:RDF>
  </metadata>
  <defs
     id="defs6">
    <style
       type="text/css"
       id="style4">*{stroke-linecap:butt;stroke-linejoin:round;}</style>
    <defs
       id="defs38">
      <path
         d="m 57.90625,0 v 2.09375 q 3.515625,0.9375 5.15625,1.609375 1.640625,0.6875 1.640625,1.375 V 30.90625 q 0,2.984375 -0.328125,4.953125 -0.3125,1.984375 -0.96875,3.109375 -0.65625,1.125 -1.71875,1.578125 -1.046875,0.46875 -2.5,0.46875 -1.625,0 -3.4375,-0.90625 -1.796875,-0.90625 -3.703125,-2.59375 Q 50.140625,35.84375 48.21875,33.421875 46.296875,31 44.4375,27.984375 V 5.078125 q 0,-0.6875 1.515625,-1.34375 Q 47.46875,3.078125 51.3125,2.09375 V 0 H 30.328125 v 2.09375 q 3.515625,0.9375 5.140625,1.609375 1.640625,0.6875 1.640625,1.375 V 30.90625 q 0,2.984375 -0.296875,4.953125 -0.28125,1.984375 -0.953125,3.109375 -0.65625,1.125 -1.703125,1.578125 -1.046875,0.46875 -2.5625,0.46875 -3.328125,0 -6.96875,-3.421875 Q 21,34.1875 16.84375,27.984375 V 5.078125 q 0,-0.734375 1.828125,-1.515625 1.84375,-0.78125 5.015625,-1.46875 V 0 h -21 v 2.09375 q 3.21875,0.84375 5.015625,1.5 1.8125,0.65625 1.8125,1.484375 V 34.71875 q 0,1.953125 -0.171875,3.078125 -0.15625,1.125 -0.875,1.734375 Q 7.765625,40.140625 6.390625,40.421875 5.03125,40.71875 2.6875,41.015625 v 1.953125 q 1.859375,0.296875 3.421875,0.703125 1.5625,0.421875 2.96875,0.90625 1.421875,0.484375 2.71875,1.0625 1.296875,0.59375 2.609375,1.234375 l 1.703125,-1.703125 0.546875,-11.1875 q 2.1875,3.21875 4.4375,5.640625 2.25,2.421875 4.4375,4.03125 2.203125,1.609375 4.25,2.40625 2.0625,0.8125 3.8125,0.8125 2.34375,0 4.3125,-0.59375 1.984375,-0.578125 3.421875,-1.953125 1.453125,-1.359375 2.28125,-3.5625 0.828125,-2.1875 0.828125,-5.46875 V 34.375 q 2.046875,3.078125 4.234375,5.390625 2.203125,2.328125 4.375,3.90625 2.171875,1.59375 4.25,2.390625 2.078125,0.8125 3.890625,0.8125 2.34375,0 4.3125,-0.640625 1.984375,-0.625 3.421875,-1.953125 1.4375,-1.3125 2.265625,-3.34375 0.828125,-2.015625 0.828125,-4.75 V 5.078125 q 0,-0.6875 1.515625,-1.34375 1.515625,-0.65625 5.375,-1.640625 V 0 Z"
         id="Gentium-109" />
      <path
         d="M 37.59375,45.0625 Q 38.03125,44.78125 38,43.359375 37.984375,41.9375 37.609375,40.078125 37.25,38.234375 36.65625,36.28125 36.078125,34.328125 35.5,33.015625 h -2.09375 q -0.296875,1.953125 -0.84375,3.3125 -0.53125,1.375 -1.25,2.171875 -0.703125,0.8125 -1.5625,1.171875 -0.84375,0.375 -1.765625,0.375 -1.078125,0 -2.515625,-0.90625 -1.4375,-0.90625 -2.953125,-2.84375 Q 21,34.375 19.5,31.375 q -1.484375,-3 -2.65625,-7.15625 V 5.078125 q 0,-0.734375 1.828125,-1.515625 1.84375,-0.78125 6.421875,-1.46875 V 0 H 2.6875 v 2.09375 q 3.21875,0.734375 5.015625,1.4375 1.8125,0.71875 1.8125,1.546875 V 33.5 q 0,1.609375 -0.09375,2.703125 -0.09375,1.109375 -0.25,1.78125 Q 9.03125,38.671875 8.8125,39.0625 8.59375,39.453125 8.40625,39.703125 8.0625,40.046875 7.640625,40.265625 7.234375,40.484375 6.5625,40.625 5.90625,40.765625 4.96875,40.84375 4.046875,40.921875 2.6875,41.015625 v 1.953125 q 3.171875,0.828125 6.21875,1.6875 3.0625,0.859375 5.5,2.21875 L 16.109375,45.171875 16.75,34.078125 q 1.3125,2.6875 2.84375,5.03125 1.546875,2.34375 3.296875,4.078125 1.765625,1.734375 3.6875,2.703125 1.9375,0.984375 4.03125,0.984375 1.5625,0 3.375,-0.390625 1.8125,-0.390625 3.609375,-1.421875 z"
         id="Gentium-114" />
    </defs>
    <defs
       id="defs15">
      <path
         d="m 24.21875,41.796875 q -2.484375,0 -4.59375,-0.984375 -2.09375,-0.96875 -3.734375,-2.734375 -1.625,-1.75 -2.734375,-4.25 -1.09375,-2.484375 -1.578125,-5.5 h 20.84375 q 1.125,0 1.484375,0.359375 0.375,0.359375 0.375,1.390625 0,0.875 -0.15625,2.09375 -0.140625,1.234375 -0.5625,2.515625 -0.40625,1.296875 -1.125,2.5625 -0.703125,1.28125 -1.828125,2.28125 -1.109375,1 -2.703125,1.625 -1.59375,0.640625 -3.6875,0.640625 z m 18.0625,-14.59375 q -0.875,-0.984375 -2.34375,-1.8125 -1.453125,-0.828125 -3.015625,-1.46875 h -25.6875 V 23.78125 q 0,-3.65625 1,-7.0625 1,-3.390625 2.84375,-6 Q 16.9375,8.109375 19.625,6.546875 q 2.6875,-1.5625 6.0625,-1.5625 1.515625,0 2.953125,0.171875 1.4375,0.171875 3.09375,0.828125 1.671875,0.65625 3.6875,1.96875 2.03125,1.328125 4.765625,3.578125 0.640625,-0.34375 1.09375,-0.984375 Q 41.75,9.90625 42,9.515625 38.71875,5.953125 36.25,3.78125 33.796875,1.609375 31.609375,0.4375 29.4375,-0.734375 27.3125,-1.09375 q -2.109375,-0.375 -4.609375,-0.375 -3.75,0 -7.15625,1.609375 -3.390625,1.625 -5.984375,4.578125 -2.578125,2.953125 -4.125,7.125 -1.53125,4.171875 -1.53125,9.34375 0,3.28125 0.734375,6.453125 0.734375,3.171875 2.125,6 1.390625,2.828125 3.390625,5.21875 2,2.40625 4.546875,4.15625 1.0625,0.734375 2.40625,1.4375 1.34375,0.71875 2.8125,1.25 1.46875,0.53125 2.90625,0.84375 1.4375,0.328125 2.765625,0.328125 3.21875,0 5.671875,-0.875 2.46875,-0.875 4.328125,-2.375 1.859375,-1.484375 3.125,-3.46875 1.265625,-1.96875 2.078125,-4.171875 0.8125,-2.1875 1.140625,-4.46875 0.34375,-2.265625 0.34375,-4.3125 z"
         id="Gentium-101" />
      <path
         d="m 34.1875,13.8125 q 0,-3.453125 -0.984375,-5.921875 -0.96875,-2.46875 -2.53125,-4.1875 Q 29.109375,2 27.203125,0.96875 25.296875,-0.046875 23.4375,-0.578125 q -1.859375,-0.546875 -3.5,-0.71875 -1.625,-0.171875 -2.546875,-0.171875 -2.34375,0 -5.640625,0.890625 Q 8.453125,0.296875 5.171875,2.09375 4.828125,2.25 4.703125,3.6875 4.59375,5.125 4.65625,7 q 0.078125,1.890625 0.296875,3.796875 0.21875,1.90625 0.5625,3.015625 L 7.625,13.28125 Q 7.71875,11.234375 8.6875,9.421875 9.671875,7.625 11.296875,6.25 q 1.640625,-1.359375 3.8125,-2.140625 2.171875,-0.78125 4.71875,-0.78125 1.75,0 3.21875,0.546875 1.46875,0.5625 2.53125,1.59375 1.078125,1.03125 1.65625,2.46875 0.59375,1.4375 0.59375,3.140625 0,1.953125 -1.046875,3.46875 -1.046875,1.515625 -2.765625,2.765625 -1.703125,1.25 -3.875,2.34375 Q 17.96875,20.75 15.71875,21.921875 13.671875,22.953125 11.765625,24.125 9.859375,25.296875 8.375,26.75 q -1.484375,1.46875 -2.390625,3.28125 -0.90625,1.8125 -0.90625,4.15625 0,3.015625 1.21875,5.375 1.21875,2.375 3.25,3.984375 2.03125,1.625 4.640625,2.46875 2.609375,0.859375 5.390625,0.859375 1.515625,0 3.34375,-0.265625 Q 24.75,46.34375 26.53125,45.84375 q 1.796875,-0.484375 3.359375,-1.171875 1.5625,-0.671875 2.53125,-1.5625 0.296875,-0.28125 0.07813,-1.3125 -0.21875,-1.03125 -0.6875,-2.25 -0.46875,-1.21875 -1,-2.296875 -0.53125,-1.0625 -0.828125,-1.453125 L 28.07813,36.1875 q -2.34375,3.515625 -4.859375,4.90625 -2.515625,1.390625 -4.90625,1.390625 -1.609375,0 -2.890625,-0.546875 -1.26563,-0.53125 -2.17188,-1.390625 -0.890625,-0.84375 -1.359375,-1.875 -0.46875,-1.03125 -0.46875,-2.046875 0,-1.5625 0.921875,-2.8125 0.9375,-1.25 2.453125,-2.34375 1.515625,-1.09375 3.4375,-2.09375 1.9375,-1 3.984375,-2.078125 Q 24.3125,26.21875 26.453125,25 28.609375,23.78125 30.3125,22.1875 32.03125,20.609375 33.109375,18.578125 34.1875,16.546875 34.1875,13.8125 Z"
         id="Gentium-115" />
      <path
         d="m 2.9375,0 v 2.09375 q 2.09375,0.34375 3.5,0.703125 1.421875,0.375 2.25,0.734375 0.828125,0.375 1.1875,0.765625 0.375,0.390625 0.375,0.78125 V 63.28125 q 0,2.203125 -0.296875,3.421875 -0.28125,1.21875 -1.0625,1.828125 -0.78125,0.609375 -2.109375,0.828125 -1.3125,0.21875 -3.359375,0.46875 v 1.953125 q 3.515625,0.6875 6.4375,1.515625 2.9375,0.828125 5.96875,2.390625 l 1.75,-1.65625 V 5.078125 q 0,-0.734375 1.65625,-1.515625 Q 20.90625,2.78125 24.90625,2.09375 V 0 Z"
         id="Gentium-108" />
      <path
         d="m 17.1875,4.890625 q 2.9375,0 6.21875,1.484375 3.296875,1.484375 7.015625,4.703125 v 12.75 l -5.8125,-1.125 Q 21.296875,22.125 18.875,21 16.453125,19.875 14.890625,18.359375 13.328125,16.84375 12.59375,15.015625 11.859375,13.1875 11.859375,11.1875 11.859375,9.234375 12.4375,8 13.03125,6.78125 13.890625,6.078125 14.75,5.375 15.640625,5.125 16.546875,4.890625 17.1875,4.890625 Z M 45.21875,4 q -4.15625,-2.875 -6.875,-4.171875 -2.703125,-1.296875 -4.0625,-1.296875 -1.609375,0 -2.6875,2.25 -1.078125,2.25 -1.171875,6.203125 Q 28.21875,4.78125 26.015625,3.171875 23.828125,1.5625 21.71875,0.53125 19.625,-0.484375 17.75,-0.96875 q -1.875,-0.5 -3.4375,-0.5 -1.765625,0 -3.625,0.59375 Q 8.84375,-0.296875 7.34375,0.96875 5.859375,2.25 4.875,4.25 q -0.96875,2 -0.96875,4.828125 0,2.890625 1.046875,5.5 1.046875,2.609375 3.125,4.75 2.078125,2.15625 5.15625,3.734375 3.078125,1.59375 7.171875,2.421875 l 10.015625,2 v 6.796875 q 0,1.65625 -0.390625,3.09375 -0.390625,1.4375 -1.328125,2.484375 -0.921875,1.0625 -2.515625,1.625 Q 24.609375,42.046875 22.21875,42 20.65625,41.9375 19.140625,41.453125 17.625,40.96875 16.5,40.078125 15.375,39.203125 14.734375,38 14.109375,36.8125 14.265625,35.359375 14.3125,34.90625 13.25,34.34375 q -1.046875,-0.546875 -2.484375,-1 Q 9.328125,32.90625 7.9375,32.65625 6.546875,32.421875 5.953125,32.5625 L 5.28125,34.46875 q 1.109375,2.453125 3.40625,4.6875 2.296875,2.25 5.25,3.953125 2.953125,1.71875 6.25,2.734375 3.296875,1.03125 6.375,1.03125 5.375,0 8.28125,-2.8125 Q 37.75,41.265625 37.75,36.234375 V 8.6875 q 0,-2.046875 0.53125,-2.921875 0.53125,-0.875 1.421875,-0.875 0.671875,0 1.75,0.234375 1.078125,0.25 3.03125,1.078125 z"
         id="Gentium-97" />
    </defs>
  </defs>
  <g
     inkscape:groupmode="layer"
     id="layer3"
     inkscape:label="Back"
     style="display:inline">
    <use
       xlink:href="#Gentium-101"
       id="use17"
       x="0"
       y="0"
       width="100%"
       height="100%"
       style="fill:#f9ebeb;fill-opacity:1"
       transform="matrix(0.7,0,0,-0.7,34.11875,52.98125)" />
    <use
       x="46.191406"
       xlink:href="#Gentium-115"
       id="use19"
       y="0"
       width="100%"
       height="100%"
       style="fill:#f2f2f2"
       transform="matrix(0.7,0,0,-0.7,34.11875,52.98125)" />
    <use
       x="84.814453"
       xlink:href="#Gentium-108"
       id="use21"
       y="0"
       width="100%"
       height="100%"
       style="fill:#f2f2f2"
       transform="matrix(0.7,0,0,-0.7,34.11875,52.98125)" />
    <use
       x="111.91406"
       xlink:href="#Gentium-97"
       id="use23"
       y="0"
       width="100%"
       height="100%"
       style="fill:#f2f2f2"
       transform="matrix(0.7,0,0,-0.7,34.11875,52.98125)" />
    <use
       x="157.8125"
       xlink:href="#Gentium-115"
       id="use25"
       y="0"
       width="100%"
       height="100%"
       style="fill:#f2f2f2"
       transform="matrix(0.7,0,0,-0.7,34.11875,52.98125)" />
    <use
       x="196.43555"
       xlink:href="#Gentium-108"
       id="use27"
       y="0"
       width="100%"
       height="100%"
       style="fill:#f2f2f2"
       transform="matrix(0.7,0,0,-0.7,34.11875,52.98125)" />
    <use
       x="223.53516"
       xlink:href="#Gentium-115"
       id="use29"
       y="0"
       width="100%"
       height="100%"
       style="fill:#f2f2f2"
       transform="matrix(0.7,0,0,-0.7,34.11875,52.98125)" />
    <use
       x="262.1582"
       xlink:href="#Gentium-97"
       id="use31"
       y="0"
       width="100%"
       height="100%"
       style="fill:#f2f2f2"
       transform="matrix(0.7,0,0,-0.7,34.11875,52.98125)" />
  </g>
  <g
     inkscape:groupmode="layer"
     id="layer2"
     inkscape:label="Middle"
     style="display:inline">
    <use
       xlink:href="#Gentium-97"
       id="use40"
       x="0"
       y="0"
       width="100%"
       height="100%"
       style="fill:#e6e6e6"
       transform="matrix(0.7,0,0,-0.7,16.11875,68.10125)" />
    <use
       x="45.898438"
       xlink:href="#Gentium-109"
       id="use42"
       y="0"
       width="100%"
       height="100%"
       style="fill:#e6e6e6"
       transform="matrix(0.7,0,0,-0.7,16.11875,68.10125)" />
    <use
       x="126.2207"
       xlink:href="#Gentium-108"
       id="use44"
       y="0"
       width="100%"
       height="100%"
       style="fill:#e6e6e6"
       transform="matrix(0.7,0,0,-0.7,16.11875,68.10125)" />
    <use
       x="153.32031"
       xlink:href="#Gentium-101"
       id="use46"
       y="0"
       width="100%"
       height="100%"
       style="fill:#e6e6e6"
       transform="matrix(0.7,0,0,-0.7,16.11875,68.10125)" />
    <use
       x="199.51172"
       xlink:href="#Gentium-114"
       id="use48"
       y="0"
       width="100%"
       height="100%"
       style="fill:#f4d7d7"
       transform="matrix(0.7,0,0,-0.7,16.11875,68.10125)" />
    <use
       x="237.61133"
       xlink:href="#Gentium-101"
       id="use50"
       y="0"
       width="100%"
       height="100%"
       style="fill:#e6e6e6"
       transform="matrix(0.7,0,0,-0.7,16.11875,68.10125)" />
    <use
       x="283.80273"
       xlink:href="#Gentium-108"
       id="use52"
       y="0"
       width="100%"
       height="100%"
       style="fill:#e6e6e6"
       transform="matrix(0.7,0,0,-0.7,16.11875,68.10125)" />
    <use
       x="310.90234"
       xlink:href="#Gentium-101"
       id="use54"
       y="0"
       width="100%"
       height="100%"
       style="fill:#f4d7d7"
       transform="matrix(0.7,0,0,-0.7,16.11875,68.10125)" />
  </g>
  <g
     inkscape:groupmode="layer"
     id="layer1"
     inkscape:label="Front"
     style="display:inline">
    <g
       id="text_3"
       transform="translate(-1.88125,-7.49875)">
      <!-- re -->
      <g
         style="fill:#ff0000"
         transform="matrix(0.7,0,0,-0.7,0,90.72)"
         id="g78">
        <use
           xlink:href="#Gentium-114"
           id="use74"
           x="0"
           y="0"
           width="100%"
           height="100%" />
        <use
           x="38.099609"
           xlink:href="#Gentium-101"
           id="use76"
           y="0"
           width="100%"
           height="100%" />
      </g>
    </g>
    <g
       id="text_4"
       transform="translate(-1.88125,-7.49875)">
      <!-- sample -->
      <g
         style="fill:#333333"
         transform="matrix(0.7,0,0,-0.7,61.2,90.72)"
         id="g96">
        <defs
           id="defs82">
          <path
             d="m 42.53125,20.796875 q 0,4.25 -1,7.90625 -1,3.671875 -2.6875,6.328125 -1.6875,2.671875 -3.890625,4.171875 -2.1875,1.515625 -4.53125,1.515625 -0.875,0 -2.296875,-0.53125 -1.421875,-0.53125 -3.234375,-1.78125 -1.796875,-1.25 -3.84375,-3.375 Q 19,32.90625 16.84375,29.78125 v -19.375 q 2.203125,-1.671875 4.078125,-2.75 1.875,-1.0625 3.515625,-1.671875 Q 26.078125,5.375 27.53125,5.125 29,4.890625 30.328125,4.890625 q 2.625,0 4.84375,1.015625 2.234375,1.03125 3.859375,3.03125 1.640625,2 2.5625,4.96875 0.9375,2.984375 0.9375,6.890625 z m 6.5,3.234375 q 0,-2.84375 -0.71875,-5.828125 -0.703125,-2.96875 -2,-5.796875 Q 45.015625,9.578125 43.28125,7.03125 41.546875,4.5 39.46875,2.609375 q -2.0625,-1.875 -4.359375,-2.96875 -2.296875,-1.109375 -4.6875,-1.109375 -2.875,0 -6.5,1.609375 -3.609375,1.625 -7.078125,4.640625 V -18.3125 q 0,-0.78125 1.828125,-1.5625 1.84375,-0.78125 6.421875,-1.46875 V -23.4375 H 2.6875 v 2.09375 q 3.21875,0.78125 5.015625,1.5 1.8125,0.703125 1.8125,1.53125 v 53.03125 q 0,1.8125 -0.203125,2.984375 Q 9.125,38.875 8.421875,39.578125 7.71875,40.28125 6.375,40.59375 5.03125,40.921875 2.6875,41.015625 v 1.953125 q 1.65625,0.34375 3.171875,0.75 1.515625,0.421875 2.921875,0.875 1.421875,0.46875 2.8125,1.03125 1.390625,0.5625 2.8125,1.25 L 16.109375,45.171875 16.546875,35.5 q 2.453125,2.921875 4.90625,5.0625 2.46875,2.15625 4.71875,3.546875 2.25,1.40625 4.171875,2.078125 1.9375,0.6875 3.34375,0.6875 3.328125,0 6.125,-1.5625 2.8125,-1.5625 4.859375,-4.515625 2.0625,-2.953125 3.203125,-7.203125 1.15625,-4.25 1.15625,-9.5625 z"
             id="Gentium-112" />
        </defs>
        <use
           xlink:href="#Gentium-115"
           id="use84"
           x="0"
           y="0"
           width="100%"
           height="100%" />
        <use
           x="38.623047"
           xlink:href="#Gentium-97"
           id="use86"
           y="0"
           width="100%"
           height="100%" />
        <use
           x="84.521484"
           xlink:href="#Gentium-109"
           id="use88"
           y="0"
           width="100%"
           height="100%" />
        <use
           x="164.84375"
           xlink:href="#Gentium-112"
           id="use90"
           y="0"
           width="100%"
           height="100%" />
        <use
           x="217.82227"
           xlink:href="#Gentium-108"
           id="use92"
           y="0"
           width="100%"
           height="100%" />
        <use
           x="244.92188"
           xlink:href="#Gentium-101"
           id="use94"
           y="0"
           width="100%"
           height="100%" />
      </g>
    </g>
  </g>
</svg>
