<?xml version="1.0" encoding="UTF-8" standalone="no"?>
<svg
   xmlns:dc="http://purl.org/dc/elements/1.1/"
   xmlns:cc="http://creativecommons.org/ns#"
   xmlns:rdf="http://www.w3.org/1999/02/22-rdf-syntax-ns#"
   xmlns:svg="http://www.w3.org/2000/svg"
   xmlns="http://www.w3.org/2000/svg"
   xmlns:xlink="http://www.w3.org/1999/xlink"
   xmlns:sodipodi="http://sodipodi.sourceforge.net/DTD/sodipodi-0.dtd"
   xmlns:inkscape="http://www.inkscape.org/namespaces/inkscape"
   height="99.627502pt"
   version="1.1"
   viewBox="0 0 263.34729 99.627499"
   width="263.34729pt"
   id="svg100"
   sodipodi:docname="logo.svg"
   inkscape:version="1.0.2 (e86c8708, 2021-01-15)">
  <sodipodi:namedview
     pagecolor="#ffffff"
     bordercolor="#666666"
     borderopacity="1"
     objecttolerance="10"
     gridtolerance="10"
     guidetolerance="10"
     inkscape:pageopacity="0"
     inkscape:pageshadow="2"
     inkscape:window-width="1688"
     inkscape:window-height="836"
     id="namedview102"
     showgrid="false"
     inkscape:zoom="1.641077"
     inkscape:cx="58.612944"
     inkscape:cy="64.237343"
     inkscape:window-x="0"
     inkscape:window-y="25"
     inkscape:window-maximized="0"
     inkscape:current-layer="layer3"
     inkscape:document-rotation="0" />
  <metadata
     id="metadata2">
    <rdf:RDF>
      <cc:Work>
        <dc:type
           rdf:resource="http://purl.org/dc/dcmitype/StillImage" />
        <dc:date>2021-05-12T12:33:45.232806</dc:date>
        <dc:format>image/svg+xml</dc:format>
        <dc:creator>
          <cc:Agent>
            <dc:title>Matplotlib v3.3.3, https://matplotlib.org/</dc:title>
          </cc:Agent>
        </dc:creator>
      </cc:Work>
    </rdf:RDF>
  </metadata>
  <defs
     id="defs6">
    <style
       type="text/css"
       id="style4">*{stroke-linecap:butt;stroke-linejoin:round;}</style>
    <defs
       id="defs38">
      <path
         d="m 57.90625,0 v 2.09375 q 3.515625,0.9375 5.15625,1.609375 1.640625,0.6875 1.640625,1.375 V 30.90625 q 0,2.984375 -0.328125,4.953125 -0.3125,1.984375 -0.96875,3.109375 -0.65625,1.125 -1.71875,1.578125 -1.046875,0.46875 -2.5,0.46875 -1.625,0 -3.4375,-0.90625 -1.796875,-0.90625 -3.703125,-2.59375 Q 50.140625,35.84375 48.21875,33.421875 46.296875,31 44.4375,27.984375 V 5.078125 q 0,-0.6875 1.515625,-1.34375 Q 47.46875,3.078125 51.3125,2.09375 V 0 H 30.328125 v 2.09375 q 3.515625,0.9375 5.140625,1.609375 1.640625,0.6875 1.640625,1.375 V 30.90625 q 0,2.984375 -0.296875,4.953125 -0.28125,1.984375 -0.953125,3.109375 -0.65625,1.125 -1.703125,1.578125 -1.046875,0.46875 -2.5625,0.46875 -3.328125,0 -6.96875,-3.421875 Q 21,34.1875 16.84375,27.984375 V 5.078125 q 0,-0.734375 1.828125,-1.515625 1.84375,-0.78125 5.015625,-1.46875 V 0 h -21 v 2.09375 q 3.21875,0.84375 5.015625,1.5 1.8125,0.65625 1.8125,1.484375 V 34.71875 q 0,1.953125 -0.171875,3.078125 -0.15625,1.125 -0.875,1.734375 Q 7.765625,40.140625 6.390625,40.421875 5.03125,40.71875 2.6875,41.015625 v 1.953125 q 1.859375,0.296875 3.421875,0.703125 1.5625,0.421875 2.96875,0.90625 1.421875,0.484375 2.71875,1.0625 1.296875,0.59375 2.609375,1.234375 l 1.703125,-1.703125 0.546875,-11.1875 q 2.1875,3.21875 4.4375,5.640625 2.25,2.421875 4.4375,4.03125 2.203125,1.609375 4.25,2.40625 2.0625,0.8125 3.8125,0.8125 2.34375,0 4.3125,-0.59375 1.984375,-0.578125 3.421875,-1.953125 1.453125,-1.359375 2.28125,-3.5625 0.828125,-2.1875 0.828125,-5.46875 V 34.375 q 2.046875,3.078125 4.234375,5.390625 2.203125,2.328125 4.375,3.90625 2.171875,1.59375 4.25,2.390625 2.078125,0.8125 3.890625,0.8125 2.34375,0 4.3125,-0.640625 1.984375,-0.625 3.421875,-1.953125 1.4375,-1.3125 2.265625,-3.34375 0.828125,-2.015625 0.828125,-4.75 V 5.078125 q 0,-0.6875 1.515625,-1.34375 1.515625,-0.65625 5.375,-1.640625 V 0 Z"
         id="Gentium-109" />
      <path
         d="M 37.59375,45.0625 Q 38.03125,44.78125 38,43.359375 37.984375,41.9375 37.609375,40.078125 37.25,38.234375 36.65625,36.28125 36.078125,34.328125 35.5,33.015625 h -2.09375 q -0.296875,1.953125 -0.84375,3.3125 -0.53125,1.375 -1.25,2.171875 -0.703125,0.8125 -1.5625,1.171875 -0.84375,0.375 -1.765625,0.375 -1.078125,0 -2.515625,-0.90625 -1.4375,-0.90625 -2.953125,-2.84375 Q 21,34.375 19.5,31.375 q -1.484375,-3 -2.65625,-7.15625 V 5.078125 q 0,-0.734375 1.828125,-1.515625 1.84375,-0.78125 6.421875,-1.46875 V 0 H 2.6875 v 2.09375 q 3.21875,0.734375 5.015625,1.4375 1.8125,0.71875 1.8125,1.546875 V 33.5 q 0,1.609375 -0.09375,2.703125 -0.09375,1.109375 -0.25,1.78125 Q 9.03125,38.671875 8.8125,39.0625 8.59375,39.453125 8.40625,39.703125 8.0625,40.046875 7.640625,40.265625 7.234375,40.484375 6.5625,40.625 5.90625,40.765625 4.96875,40.84375 4.046875,40.921875 2.6875,41.015625 v 1.953125 q 3.171875,0.828125 6.21875,1.6875 3.0625,0.859375 5.5,2.21875 L 16.109375,45.171875 16.75,34.078125 q 1.3125,2.6875 2.84375,5.03125 1.546875,2.34375 3.296875,4.078125 1.765625,1.734375 3.6875,2.703125 1.9375,0.984375 4.03125,0.984375 1.5625,0 3.375,-0.390625 1.8125,-0.390625 3.609375,-1.421875 z"
         id="Gentium-114" />
    </defs>
    <defs
       id="defs15">
      <path
         d="m 24.21875,41.796875 q -2.484375,0 -4.59375,-0.984375 -2.09375,-0.96875 -3.734375,-2.734375 -1.625,-1.75 -2.734375,-4.25 -1.09375,-2.484375 -1.578125,-5.5 h 20.84375 q 1.125,0 1.484375,0.359375 0.375,0.359375 0.375,1.390625 0,0.875 -0.15625,2.09375 -0.140625,1.234375 -0.5625,2.515625 -0.40625,1.296875 -1.125,2.5625 -0.703125,1.28125 -1.828125,2.28125 -1.109375,1 -2.703125,1.625 -1.59375,0.640625 -3.6875,0.640625 z m 18.0625,-14.59375 q -0.875,-0.984375 -2.34375,-1.8125 -1.453125,-0.828125 -3.015625,-1.46875 h -25.6875 V 23.78125 q 0,-3.65625 1,-7.0625 1,-3.390625 2.84375,-6 Q 16.9375,8.109375 19.625,6.546875 q 2.6875,-1.5625 6.0625,-1.5625 1.515625,0 2.953125,0.171875 1.4375,0.171875 3.09375,0.828125 1.671875,0.65625 3.6875,1.96875 2.03125,1.328125 4.765625,3.578125 0.640625,-0.34375 1.09375,-0.984375 Q 41.75,9.90625 42,9.515625 38.71875,5.953125 36.25,3.78125 33.796875,1.609375 31.609375,0.4375 29.4375,-0.734375 27.3125,-1.09375 q -2.109375,-0.375 -4.609375,-0.375 -3.75,0 -7.15625,1.609375 -3.390625,1.625 -5.984375,4.578125 -2.578125,2.953125 -4.125,7.125 -1.53125,4.171875 -1.53125,9.34375 0,3.28125 0.734375,6.453125 0.734375,3.171875 2.125,6 1.390625,2.828125 3.390625,5.21875 2,2.40625 4.546875,4.15625 1.0625,0.734375 2.40625,1.4375 1.34375,0.71875 2.8125,1.25 1.46875,0.53125 2.90625,0.84375 1.4375,0.328125 2.765625,0.328125 3.21875,0 5.671875,-0.875 2.46875,-0.875 4.328125,-2.375 1.859375,-1.484375 3.125,-3.46875 1.265625,-1.96875 2.078125,-4.171875 0.8125,-2.1875 1.140625,-4.46875 0.34375,-2.265625 0.34375,-4.3125 z"
         id="Gentium-101" />
      <path
         d="m 34.1875,13.8125 q 0,-3.453125 -0.984375,-5.921875 -0.96875,-2.46875 -2.53125,-4.1875 Q 29.109375,2 27.203125,0.96875 25.296875,-0.046875 23.4375,-0.578125 q -1.859375,-0.546875 -3.5,-0.71875 -1.625,-0.171875 -2.546875,-0.171875 -2.34375,0 -5.640625,0.890625 Q 8.453125,0.296875 5.171875,2.09375 4.828125,2.25 4.703125,3.6875 4.59375,5.125 4.65625,7 q 0.078125,1.890625 0.296875,3.796875 0.21875,1.90625 0.5625,3.015625 L 7.625,13.28125 Q 7.71875,11.234375 8.6875,9.421875 9.671875,7.625 11.296875,6.25 q 1.640625,-1.359375 3.8125,-2.140625 2.171875,-0.78125 4.71875,-0.78125 1.75,0 3.21875,0.546875 1.46875,0.5625 2.53125,1.59375 1.078125,1.03125 1.65625,2.46875 0.59375,1.4375 0.59375,3.140625 0,1.953125 -1.046875,3.46875 -1.046875,1.515625 -2.765625,2.765625 -1.703125,1.25 -3.875,2.34375 Q 17.96875,20.75 15.71875,21.921875 13.671875,22.953125 11.765625,24.125 9.859375,25.296875 8.375,26.75 q -1.484375,1.46875 -2.390625,3.28125 -0.90625,1.8125 -0.90625,4.15625 0,3.015625 1.21875,5.375 1.21875,2.375 3.25,3.984375 2.03125,1.625 4.640625,2.46875 2.609375,0.859375 5.390625,0.859375 1.515625,0 3.34375,-0.265625 Q 24.75,46.34375 26.53125,45.84375 q 1.796875,-0.484375 3.359375,-1.171875 1.5625,-0.671875 2.53125,-1.5625 0.296875,-0.28125 0.07813,-1.3125 -0.21875,-1.03125 -0.6875,-2.25 -0.46875,-1.21875 -1,-2.296875 -0.53125,-1.0625 -0.828125,-1.453125 L 28.07813,36.1875 q -2.34375,3.515625 -4.859375,4.90625 -2.515625,1.390625 -4.90625,1.390625 -1.609375,0 -2.890625,-0.546875 -1.26563,-0.53125 -2.17188,-1.390625 -0.890625,-0.84375 -1.359375,-1.875 -0.46875,-1.03125 -0.46875,-2.046875 0,-1.5625 0.921875,-2.8125 0.9375,-1.25 2.453125,-2.34375 1.515625,-1.09375 3.4375,-2.09375 1.9375,-1 3.984375,-2.078125 Q 24.3125,26.21875 26.453125,25 28.609375,23.78125 30.3125,22.1875 32.03125,20.609375 33.109375,18.578125 34.1875,16.546875 34.1875,13.8125 Z"
         id="Gentium-115" />
      <path
         d="m 2.9375,0 v 2.09375 q 2.09375,0.34375 3.5,0.703125 1.421875,0.375 2.25,0.734375 0.828125,0.375 1.1875,0.765625 0.375,0.390625 0.375,0.78125 V 63.28125 q 0,2.203125 -0.296875,3.421875 -0.28125,1.21875 -1.0625,1.828125 -0.78125,0.609375 -2.109375,0.828125 -1.3125,0.21875 -3.359375,0.46875 v 1.953125 q 3.515625,0.6875 6.4375,1.515625 2.9375,0.828125 5.96875,2.390625 l 1.75,-1.65625 V 5.078125 q 0,-0.734375 1.65625,-1.515625 Q 20.90625,2.78125 24.90625,2.09375 V 0 Z"
         id="Gentium-108" />
      <path
         d="m 17.1875,4.890625 q 2.9375,0 6.21875,1.484375 3.296875,1.484375 7.015625,4.703125 v 12.75 l -5.8125,-1.125 Q 21.296875,22.125 18.875,21 16.453125,19.875 14.890625,18.359375 13.328125,16.84375 12.59375,15.015625 11.859375,13.1875 11.859375,11.1875 11.859375,9.234375 12.4375,8 13.03125,6.78125 13.890625,6.078125 14.75,5.375 15.640625,5.125 16.546875,4.890625 17.1875,4.890625 Z M 45.21875,4 q -4.15625,-2.875 -6.875,-4.171875 -2.703125,-1.296875 -4.0625,-1.296875 -1.609375,0 -2.6875,2.25 -1.078125,2.25 -1.171875,6.203125 Q 28.21875,4.78125 26.015625,3.171875 23.828125,1.5625 21.71875,0.53125 19.625,-0.484375 17.75,-0.96875 q -1.875,-0.5 -3.4375,-0.5 -1.765625,0 -3.625,0.59375 Q 8.84375,-0.296875 7.34375,0.96875 5.859375,2.25 4.875,4.25 q -0.96875,2 -0.96875,4.828125 0,2.890625 1.046875,5.5 1.046875,2.609375 3.125,4.75 2.078125,2.15625 5.15625,3.734375 3.078125,1.59375 7.171875,2.421875 l 10.015625,2 v 6.796875 q 0,1.65625 -0.390625,3.09375 -0.390625,1.4375 -1.328125,2.484375 -0.921875,1.0625 -2.515625,1.625 Q 24.609375,42.046875 22.21875,42 20.65625,41.9375 19.140625,41.453125 17.625,40.96875 16.5,40.078125 15.375,39.203125 14.734375,38 14.109375,36.8125 14.265625,35.359375 14.3125,34.90625 13.25,34.34375 q -1.046875,-0.546875 -2.484375,-1 Q 9.328125,32.90625 7.9375,32.65625 6.546875,32.421875 5.953125,32.5625 L 5.28125,34.46875 q 1.109375,2.453125 3.40625,4.6875 2.296875,2.25 5.25,3.953125 2.953125,1.71875 6.25,2.734375 3.296875,1.03125 6.375,1.03125 5.375,0 8.28125,-2.8125 Q 37.75,41.265625 37.75,36.234375 V 8.6875 q 0,-2.046875 0.53125,-2.921875 0.53125,-0.875 1.421875,-0.875 0.671875,0 1.75,0.234375 1.078125,0.25 3.03125,1.078125 z"
         id="Gentium-97" />
    </defs>
    <clipPath
       clipPathUnits="userSpaceOnUse"
       id="clipPath1271">
      <g
         inkscape:label="Clip"
         id="use1273">
        <g
           id="g1355">
          <path
             d="m 25.256645,179.3801 q 2.05625,0 4.353125,-1.03906 2.307813,-1.03906 4.910937,-3.29219 v -8.925 l -4.06875,0.7875 q -2.31875,0.40469 -4.014062,1.19219 -1.695313,0.7875 -2.789063,1.84844 -1.09375,1.06093 -1.607812,2.34062 -0.514062,1.27969 -0.514062,2.67969 0,1.36719 0.404687,2.23125 0.415625,0.85312 1.017188,1.34531 0.601562,0.49219 1.224999,0.66719 0.634376,0.16406 1.082813,0.16406 z m 19.621875,0.62344 q -2.909375,2.0125 -4.8125,2.92031 -1.892188,0.90781 -2.84375,0.90781 -1.126563,0 -1.88125,-1.575 -0.754688,-1.575 -0.820313,-4.34218 -1.542187,1.54218 -3.084375,2.66875 -1.53125,1.12656 -3.007812,1.84843 -1.465625,0.71094 -2.778125,1.05 -1.3125,0.35 -2.40625,0.35 -1.235938,0 -2.5375,-0.41562 -1.290625,-0.40469 -2.340625,-1.29063 -1.039063,-0.89687 -1.728125,-2.29687 -0.678125,-1.4 -0.678125,-3.37969 0,-2.02344 0.732812,-3.85 0.732813,-1.82656 2.1875,-3.325 1.454688,-1.50937 3.609375,-2.61406 2.154688,-1.11563 5.020313,-1.69531 l 7.010937,-1.4 v -4.75782 q 0,-1.15937 -0.273437,-2.16562 -0.273438,-1.00625 -0.929688,-1.73906 -0.645312,-0.74375 -1.760937,-1.1375 -1.104688,-0.39375 -2.778125,-0.36094 -1.09375,0.0438 -2.154688,0.38281 -1.060937,0.33906 -1.848437,0.9625 -0.7875,0.6125 -1.235938,1.45469 -0.4375,0.83125 -0.328125,1.84844 0.03281,0.31718 -0.710937,0.71093 -0.732813,0.38282 -1.739062,0.7 -1.006251,0.30625 -1.979688,0.48125 -0.973437,0.16407 -1.389063,0.0656 l -0.470312,-1.33438 q 0.776563,-1.71718 2.384375,-3.28125 1.607812,-1.575 3.675,-2.76718 2.067187,-1.20313 4.375,-1.91407 2.307812,-0.72187 4.4625,-0.72187 3.7625,0 5.796875,1.96875 2.034375,1.95781 2.034375,5.47969 v 19.28281 q 0,1.43281 0.371875,2.04531 0.371875,0.6125 0.995312,0.6125 0.470313,0 1.225,-0.16406 0.754688,-0.175 2.121875,-0.75469 z"
             id="path1339"
             style="fill:#000000;fill-opacity:0.1;stroke-width:0.7" />
          <path
             d="m 85.888676,182.80354 v -1.46563 q 2.460938,-0.65625 3.609375,-1.12656 1.148438,-0.48125 1.148438,-0.9625 v -18.07969 q 0,-2.08906 -0.229688,-3.46718 -0.21875,-1.38907 -0.678125,-2.17657 -0.459375,-0.7875 -1.203125,-1.10468 -0.732812,-0.32813 -1.75,-0.32813 -1.1375,0 -2.40625,0.63438 -1.257812,0.63437 -2.592187,1.81562 -1.334375,1.17031 -2.679688,2.86563 -1.345312,1.69531 -2.646875,3.80625 v 16.03437 q 0,0.48125 1.060938,0.94063 1.060937,0.45937 3.751562,1.14843 v 1.46563 H 66.583989 v -1.46563 q 2.460937,-0.65625 3.598437,-1.12656 1.148438,-0.48125 1.148438,-0.9625 v -18.07969 q 0,-2.08906 -0.207813,-3.46718 -0.196875,-1.38907 -0.667187,-2.17657 -0.459375,-0.7875 -1.192188,-1.10468 -0.732812,-0.32813 -1.79375,-0.32813 -2.329687,0 -4.878125,2.39531 -2.5375,2.38438 -5.446875,6.72657 v 16.03437 q 0,0.51406 1.279688,1.06094 1.290625,0.54687 3.510937,1.02812 v 1.46563 h -14.7 v -1.46563 q 2.253125,-0.59062 3.510938,-1.05 1.26875,-0.45937 1.26875,-1.03906 v -20.74844 q 0,-1.36718 -0.120313,-2.15468 -0.109375,-0.7875 -0.6125,-1.21407 -0.492187,-0.42656 -1.454687,-0.62343 -0.951563,-0.20782 -2.592188,-0.41563 v -1.36719 q 1.301563,-0.20781 2.395313,-0.49218 1.09375,-0.29532 2.078125,-0.63438 0.995312,-0.33906 1.903125,-0.74375 0.907812,-0.41562 1.826562,-0.86406 l 1.192188,1.19219 0.382812,7.83125 q 1.53125,-2.25313 3.10625,-3.94844 1.575,-1.69531 3.10625,-2.82188 1.542188,-1.12656 2.975,-1.68437 1.44375,-0.56875 2.66875,-0.56875 1.640625,0 3.01875,0.41562 1.389063,0.40469 2.395313,1.36719 1.017187,0.95156 1.596875,2.49375 0.579687,1.53125 0.579687,3.82813 v 0.64531 q 1.432813,-2.15469 2.964063,-3.77344 1.542187,-1.62969 3.0625,-2.73437 1.520312,-1.11563 2.975,-1.67344 1.454687,-0.56875 2.723437,-0.56875 1.640625,0 3.01875,0.44844 1.389063,0.4375 2.395313,1.36718 1.00625,0.91875 1.585937,2.34063 0.579688,1.41094 0.579688,3.325 v 21.77656 q 0,0.48125 1.060937,0.94063 1.060938,0.45937 3.762504,1.14843 v 1.46563 z"
             id="path1341"
             style="fill:#000000;fill-opacity:0.1;stroke-width:0.7" />
          <path
             d="m 103.63614,182.80354 v -1.46563 q 1.46562,-0.24062 2.45,-0.49218 0.99531,-0.2625 1.575,-0.51407 0.57968,-0.2625 0.83125,-0.53593 0.2625,-0.27344 0.2625,-0.54688 v -40.74219 q 0,-1.54218 -0.20782,-2.39531 -0.19687,-0.85312 -0.74375,-1.27969 -0.54687,-0.42656 -1.47656,-0.57968 -0.91875,-0.15313 -2.35156,-0.32813 v -1.36719 q 2.46094,-0.48125 4.50625,-1.06093 2.05625,-0.57969 4.17812,-1.67344 l 1.225,1.15937 v 48.26719 q 0,0.51406 1.15938,1.06094 1.17031,0.54687 3.97031,1.02812 v 1.46563 z"
             id="path1343"
             style="fill:#000000;fill-opacity:0.1;stroke-width:0.7" />
          <path
             d="m 137.50274,153.54573 q -1.73906,0 -3.21563,0.68906 -1.46562,0.67812 -2.61406,1.91406 -1.1375,1.225 -1.91406,2.975 -0.76563,1.73906 -1.10469,3.85 h 14.59063 q 0.7875,0 1.03906,-0.25156 0.2625,-0.25156 0.2625,-0.97344 0,-0.6125 -0.10938,-1.46562 -0.0984,-0.86407 -0.39375,-1.76094 -0.28437,-0.90781 -0.7875,-1.79375 -0.49218,-0.89688 -1.27968,-1.59688 -0.77657,-0.7 -1.89219,-1.1375 -1.11563,-0.44843 -2.58125,-0.44843 z m 12.64375,10.21562 q -0.6125,0.68906 -1.64063,1.26875 -1.01718,0.57969 -2.11093,1.02813 h -17.98125 v 0.0984 q 0,2.55938 0.7,4.94375 0.7,2.37344 1.99062,4.2 1.30156,1.82657 3.18281,2.92032 1.88125,1.09375 4.24375,1.09375 1.06094,0 2.06719,-0.12032 1.00625,-0.12031 2.16563,-0.57968 1.17031,-0.45938 2.58125,-1.37813 1.42187,-0.92969 3.33593,-2.50469 0.44844,0.24063 0.76563,0.68907 0.32812,0.44843 0.50312,0.72187 -2.29687,2.49375 -4.025,4.01406 -1.71718,1.52032 -3.24843,2.34063 -1.52032,0.82031 -3.00782,1.07187 -1.47656,0.2625 -3.22656,0.2625 -2.625,0 -5.00937,-1.12656 -2.37344,-1.1375 -4.18907,-3.20469 -1.80468,-2.06718 -2.8875,-4.9875 -1.07187,-2.92031 -1.07187,-6.54062 0,-2.29688 0.51406,-4.51719 0.51406,-2.22031 1.4875,-4.2 0.97344,-1.97969 2.37344,-3.65312 1.4,-1.68438 3.18281,-2.90938 0.74375,-0.51406 1.68438,-1.00625 0.94062,-0.50312 1.96875,-0.875 1.02812,-0.37187 2.03437,-0.59062 1.00625,-0.22969 1.93594,-0.22969 2.25312,0 3.97031,0.6125 1.72813,0.6125 3.02969,1.6625 1.30156,1.03906 2.1875,2.42812 0.88594,1.37813 1.45469,2.92032 0.56875,1.53125 0.79843,3.12812 0.24063,1.58594 0.24063,3.01875 z"
             id="path1345"
             style="fill:#000000;fill-opacity:0.1;stroke-width:0.7" />
          <path
             d="m 179.19922,151.25979 q 0.30625,0.19687 0.28438,1.19219 -0.0109,0.99531 -0.27344,2.29687 -0.25156,1.29063 -0.66719,2.65781 -0.40468,1.36719 -0.80937,2.28594 h -1.46563 q -0.20781,-1.36719 -0.59062,-2.31875 -0.37188,-0.9625 -0.875,-1.52031 -0.49219,-0.56875 -1.09375,-0.82031 -0.59063,-0.2625 -1.23594,-0.2625 -0.75469,0 -1.76094,0.63437 -1.00625,0.63438 -2.06718,1.99063 -1.06094,1.34531 -2.11094,3.44531 -1.03906,2.1 -1.85938,5.00937 v 13.39844 q 0,0.51406 1.27969,1.06094 1.29063,0.54687 4.49531,1.02812 v 1.46563 h -15.68437 v -1.46563 q 2.25312,-0.51406 3.51094,-1.00625 1.26875,-0.50312 1.26875,-1.08281 v -19.89531 q 0,-1.12656 -0.0656,-1.89219 -0.0656,-0.77656 -0.175,-1.24687 -0.0984,-0.48125 -0.25156,-0.75469 -0.15313,-0.27344 -0.28438,-0.44844 -0.24062,-0.24062 -0.53593,-0.39375 -0.28438,-0.15312 -0.75469,-0.25156 -0.45938,-0.0984 -1.11563,-0.15313 -0.64531,-0.0547 -1.59687,-0.12031 v -1.36719 q 2.22031,-0.57968 4.35312,-1.18125 2.14375,-0.60156 3.85,-1.55312 l 1.19219,1.19219 0.44844,7.76562 q 0.91875,-1.88125 1.99062,-3.52187 1.08282,-1.64063 2.30782,-2.85469 1.23593,-1.21406 2.58125,-1.89219 1.35625,-0.68906 2.82187,-0.68906 1.09375,0 2.3625,0.27344 1.26875,0.27343 2.52656,0.99531 z"
             id="path1347"
             style="fill:#ff0000;fill-opacity:0.104839;stroke-width:0.7" />
          <path
             d="m 196.50645,153.54573 q -1.73906,0 -3.21563,0.68906 -1.46562,0.67812 -2.61406,1.91406 -1.1375,1.225 -1.91406,2.975 -0.76563,1.73906 -1.10469,3.85 h 14.59063 q 0.7875,0 1.03906,-0.25156 0.2625,-0.25156 0.2625,-0.97344 0,-0.6125 -0.10938,-1.46562 -0.0984,-0.86407 -0.39375,-1.76094 -0.28437,-0.90781 -0.7875,-1.79375 -0.49218,-0.89688 -1.27968,-1.59688 -0.77657,-0.7 -1.89219,-1.1375 -1.11563,-0.44843 -2.58125,-0.44843 z m 12.64375,10.21562 q -0.6125,0.68906 -1.64063,1.26875 -1.01718,0.57969 -2.11093,1.02813 h -17.98125 v 0.0984 q 0,2.55938 0.7,4.94375 0.7,2.37344 1.99062,4.2 1.30156,1.82657 3.18281,2.92032 1.88125,1.09375 4.24375,1.09375 1.06094,0 2.06719,-0.12032 1.00625,-0.12031 2.16563,-0.57968 1.17031,-0.45938 2.58125,-1.37813 1.42187,-0.92969 3.33593,-2.50469 0.44844,0.24063 0.76563,0.68907 0.32812,0.44843 0.50312,0.72187 -2.29687,2.49375 -4.025,4.01406 -1.71718,1.52032 -3.24843,2.34063 -1.52032,0.82031 -3.00782,1.07187 -1.47656,0.2625 -3.22656,0.2625 -2.625,0 -5.00937,-1.12656 -2.37344,-1.1375 -4.18907,-3.20469 -1.80468,-2.06718 -2.8875,-4.9875 -1.07187,-2.92031 -1.07187,-6.54062 0,-2.29688 0.51406,-4.51719 0.51406,-2.22031 1.4875,-4.2 0.97344,-1.97969 2.37344,-3.65312 1.4,-1.68438 3.18281,-2.90938 0.74375,-0.51406 1.68438,-1.00625 0.94062,-0.50312 1.96875,-0.875 1.02812,-0.37187 2.03437,-0.59062 1.00625,-0.22969 1.93594,-0.22969 2.25312,0 3.97031,0.6125 1.72813,0.6125 3.02969,1.6625 1.30156,1.03906 2.1875,2.42812 0.88594,1.37813 1.45469,2.92032 0.56875,1.53125 0.79843,3.12812 0.24063,1.58594 0.24063,3.01875 z"
             id="path1349"
             style="fill:#000000;fill-opacity:0.1;stroke-width:0.7" />
          <path
             d="m 213.94356,182.80354 v -1.46563 q 1.46562,-0.24062 2.45,-0.49218 0.99531,-0.2625 1.575,-0.51407 0.57969,-0.2625 0.83125,-0.53593 0.2625,-0.27344 0.2625,-0.54688 v -40.74219 q 0,-1.54218 -0.20781,-2.39531 -0.19688,-0.85312 -0.74375,-1.27969 -0.54688,-0.42656 -1.47657,-0.57968 -0.91875,-0.15313 -2.35156,-0.32813 v -1.36719 q 2.46094,-0.48125 4.50625,-1.06093 2.05625,-0.57969 4.17813,-1.67344 l 1.225,1.15937 v 48.26719 q 0,0.51406 1.15937,1.06094 1.17031,0.54687 3.97031,1.02812 v 1.46563 z"
             id="path1351"
             style="fill:#000000;fill-opacity:0.1;stroke-width:0.7" />
          <path
             d="m 247.81016,153.54573 q -1.73906,0 -3.21562,0.68906 -1.46563,0.67812 -2.61407,1.91406 -1.1375,1.225 -1.91406,2.975 -0.76562,1.73906 -1.10469,3.85 h 14.59063 q 0.7875,0 1.03906,-0.25156 0.2625,-0.25156 0.2625,-0.97344 0,-0.6125 -0.10937,-1.46562 -0.0984,-0.86407 -0.39375,-1.76094 -0.28438,-0.90781 -0.7875,-1.79375 -0.49219,-0.89688 -1.27969,-1.59688 -0.77656,-0.7 -1.89219,-1.1375 -1.11562,-0.44843 -2.58125,-0.44843 z m 12.64375,10.21562 q -0.6125,0.68906 -1.64062,1.26875 -1.01719,0.57969 -2.11094,1.02813 H 238.7211 v 0.0984 q 0,2.55938 0.7,4.94375 0.7,2.37344 1.99062,4.2 1.30157,1.82657 3.18282,2.92032 1.88125,1.09375 4.24375,1.09375 1.06093,0 2.06718,-0.12032 1.00625,-0.12031 2.16563,-0.57968 1.17031,-0.45938 2.58125,-1.37813 1.42187,-0.92969 3.33594,-2.50469 0.44843,0.24063 0.76562,0.68907 0.32813,0.44843 0.50313,0.72187 -2.29688,2.49375 -4.025,4.01406 -1.71719,1.52032 -3.24844,2.34063 -1.52031,0.82031 -3.00781,1.07187 -1.47657,0.2625 -3.22657,0.2625 -2.625,0 -5.00937,-1.12656 -2.37344,-1.1375 -4.18906,-3.20469 -1.80469,-2.06718 -2.8875,-4.9875 -1.07188,-2.92031 -1.07188,-6.54062 0,-2.29688 0.51406,-4.51719 0.51407,-2.22031 1.4875,-4.2 0.97344,-1.97969 2.37344,-3.65312 1.4,-1.68438 3.18281,-2.90938 0.74375,-0.51406 1.68438,-1.00625 0.94062,-0.50312 1.96875,-0.875 1.02812,-0.37187 2.03437,-0.59062 1.00625,-0.22969 1.93594,-0.22969 2.25313,0 3.97031,0.6125 1.72813,0.6125 3.02969,1.6625 1.30156,1.03906 2.1875,2.42812 0.88594,1.37813 1.45469,2.92032 0.56875,1.53125 0.79844,3.12812 0.24062,1.58594 0.24062,3.01875 z"
             id="path1353"
             style="fill:#ff0000;fill-opacity:0.104839;stroke-width:0.7" />
        </g>
      </g>
    </clipPath>
  </defs>
  <g
     inkscape:groupmode="layer"
     id="layer3"
     inkscape:label="Back"
     style="display:inline">
    <path
       id="use17-2"
       style="display:inline;fill:#000000;fill-opacity:0.06;stroke-width:0.7;stroke-linecap:butt;stroke-linejoin:round"
       d="m 104.56865,7.25e-5 c -1.41458,0.72917 -2.80691,1.28786 -4.17774,1.67432 -1.363535,0.38645 -2.866695,0.73971 -4.507315,1.06054 v 1.3667 c 0.95521,0.11667 1.74004,0.22604 2.35254,0.32813 0.61979,0.10208 1.11198,0.29569 1.47656,0.58008 0.364575,0.28437 0.611435,0.71006 0.742675,1.27881 0.13855,0.56875 0.20801,1.36836 0.20801,2.39648 V 49.426823 c 1e-5,0.1823 -0.0872,0.3641 -0.26221,0.54639 -0.16772,0.18229 -0.444115,0.36114 -0.830565,0.53613 -0.2427,0.10533 -0.56028,0.21258 -0.9126,0.32081 v 2.15185 h 12.265145 v -1.46631 c -1.86667,-0.32083 -3.18952,-0.66374 -3.96973,-1.02831 -0.77292,-0.36459 -1.16015,-0.71784 -1.16015,-1.06056 V 1.1602225 Z m 78.13476,0 c -1.41458,0.72917 -2.8069,1.28786 -4.17773,1.67432 -1.36354,0.38645 -2.8667,0.73971 -4.50732,1.06054 v 1.3667 c 0.9552,0.11667 1.74003,0.22604 2.35253,0.32813 0.6198,0.10208 1.11198,0.29569 1.47656,0.58008 0.36458,0.28437 0.61142,0.71006 0.74268,1.27881 0.13854,0.56875 0.20801,1.36836 0.20801,2.39648 V 35.433173 c 0.25368,0.0391 0.50248,0.0718 0.76759,0.12891 0.84582,0.18228 1.68831,0.51484 2.52685,0.99609 0.20417,0.13126 0.29877,0.52884 0.28418,1.19238 -0.007,0.66354 -0.0989,1.42917 -0.27393,2.29688 -0.16771,0.86042 -0.38942,1.74577 -0.6665,2.65723 -0.26979,0.91146 -0.54026,1.67412 -0.81006,2.28662 h -1.46484 c -0.0921,-0.60554 -0.21983,-1.12659 -0.36328,-1.60986 v 6.0454 c 0,0.1823 -0.0872,0.3641 -0.26221,0.54639 -0.16771,0.18229 -0.44411,0.36114 -0.83057,0.53613 -0.38646,0.16772 -0.91263,0.33917 -1.57617,0.51417 -0.65625,0.1677 -1.47213,0.33177 -2.44922,0.49218 v 1.46631 h 11.50928 c 0.0114,-0.80244 0.0699,-1.59779 0.17577,-2.38623 -0.0896,-0.0363 -0.19826,-0.0717 -0.27685,-0.10839 -0.77292,-0.36459 -1.16016,-0.71784 -1.16016,-1.06056 V 1.1602225 Z M 52.034965,20.169513 c -0.61979,0 -1.26569,0.0754 -1.93653,0.22851 -0.67083,0.14583 -1.34925,0.34389 -2.03466,0.5918 -0.68542,0.24792 -1.34167,0.5391 -1.96875,0.87451 -0.62709,0.32813 -1.18874,0.66364 -1.68458,1.00635 -1.18854,0.81666 -2.2483,1.78626 -3.18164,2.90918 -0.93333,1.11562 -1.72555,2.33353 -2.37451,3.65332 -0.64896,1.31979 -1.14411,2.7195 -1.48681,4.1997 -0.14426,0.62306 -0.2519,1.25162 -0.33545,1.88379 1.41192,0.29229 2.57531,0.86858 3.47754,1.7417 1.35625,1.30521 2.03466,3.13059 2.03466,5.47851 v 8.58546 c 0.7642,0.61206 1.57921,1.13887 2.45801,1.56006 1.58958,0.75103 3.2583,1.12792 5.0083,1.12792 1.16667,0 2.24268,-0.0887 3.22705,-0.26367 0.55357,-0.0936 1.11115,-0.25142 1.67139,-0.46289 v -4.0459 c -0.25272,0.0576 -0.50144,0.1061 -0.74121,0.13477 -0.67084,0.0802 -1.36107,0.12011 -2.06836,0.12011 -1.575,0 -2.98949,-0.36507 -4.24365,-1.09423 -1.25417,-0.72917 -2.31394,-1.70172 -3.18164,-2.91944 -0.86042,-1.21771 -1.52406,-2.61888 -1.99073,-4.20117 -0.46666,-1.58958 -0.70019,-3.23759 -0.70019,-4.94385 v -0.0981 h 14.32178 c 0.0659,-0.0286 0.13542,-0.0544 0.20068,-0.0835 0.60521,-0.2771 1.21416,-0.56384 1.82666,-0.8628 l 0.94775,0.94629 h 0.68408 c 0.72917,-0.29896 1.43272,-0.64186 2.11085,-1.02832 0.68541,-0.38646 1.23229,-0.80918 1.64062,-1.26856 0,-0.9552 -0.0798,-1.96174 -0.24023,-3.01904 -0.15313,-1.06458 -0.41918,-2.10661 -0.79834,-3.12744 -0.37917,-1.02812 -0.86397,-2.00215 -1.45459,-2.9209 -0.59063,-0.92604 -1.32077,-1.73454 -2.18848,-2.42724 -0.86771,-0.7 -1.87721,-1.25427 -3.0293,-1.6626 -1.14479,-0.40833 -2.46764,-0.6123 -3.96972,-0.6123 z m 28.12207,0 c -1.29792,0 -2.55573,0.19954 -3.77344,0.60058 -1.21771,0.39375 -2.29964,0.97019 -3.24756,1.72852 -0.94792,0.75103 -1.70615,1.68073 -2.2749,2.78906 -0.56875,1.10104 -0.854,2.35589 -0.85401,3.76318 0,1.09375 0.21136,2.06335 0.63428,2.90918 0.42292,0.84584 0.98161,1.61146 1.67432,2.29687 0.44015,0.43089 0.92482,0.83224 1.44433,1.20996 0.35052,0.0635 0.69432,0.13835 1.02246,0.23731 0.92605,0.26979 1.72419,0.7265 2.39502,1.36817 0.24117,0.2256 0.45786,0.48493 0.66211,0.76025 0.91589,0.47523 1.8235,0.94298 2.71143,1.39013 0.6449,0.32478 1.2292,0.66965 1.78565,1.02393 1.02173,-1.07766 2.03661,-1.98388 3.04394,-2.71582 0.4527,-0.3322 0.90073,-0.62103 1.34473,-0.87891 -0.54537,-0.42296 -1.1271,-0.81557 -1.75489,-1.17041 -0.99896,-0.56875 -1.98776,-1.10527 -2.96484,-1.6084 -0.95521,-0.50312 -1.8849,-0.98792 -2.78907,-1.45458 -0.89687,-0.46667 -1.69944,-0.95443 -2.40673,-1.46485 -0.70729,-0.51041 -1.2793,-1.05729 -1.71679,-1.64062 -0.43023,-0.58333 -0.64454,-1.23958 -0.64454,-1.96875 0,-0.47396 0.10937,-0.95137 0.32812,-1.43262 0.21876,-0.48125 0.53506,-0.91875 0.95069,-1.3125 0.42292,-0.40104 0.92988,-0.72621 1.5205,-0.97412 0.59792,-0.25521 1.27191,-0.38233 2.02296,-0.38233 1.11562,0 2.2611,0.32371 3.43506,0.97266 1.17395,0.64896 2.30761,1.79444 3.40136,3.43506 l 1.33447,0.27393 c 0.13855,-0.1823 0.33217,-0.52224 0.58009,-1.01807 0.24791,-0.50313 0.48143,-1.03819 0.70019,-1.60693 0.21875,-0.56876 0.37837,-1.09493 0.48047,-1.57617 0.10207,-0.48126 0.0843,-0.78721 -0.0542,-0.91846 -0.45209,-0.41563 -1.0433,-0.7807 -1.77246,-1.09424 -0.72916,-0.32083 -1.51253,-0.59427 -2.35108,-0.82031 -0.83125,-0.23333 -1.67373,-0.41071 -2.52685,-0.53467 -0.85313,-0.12397 -1.63353,-0.18603 -2.34082,-0.18603 z m 50.895985,0 c -1.43645,0 -2.92483,0.23945 -4.46338,0.7207 -1.53854,0.47396 -2.99736,1.11246 -4.37549,1.91455 -1.37811,0.79479 -2.60194,1.71708 -3.67383,2.76709 -0.71439,0.69496 -1.29386,1.41447 -1.7622,2.15478 v 2.46973 c 0.28301,0.0359 0.67641,0.0197 1.23633,-0.0747 0.64896,-0.11666 1.30963,-0.27629 1.98047,-0.48047 0.67083,-0.21145 1.25022,-0.44497 1.73877,-0.70019 0.49582,-0.2625 0.73231,-0.499 0.71044,-0.71045 -0.0729,-0.67813 0.0365,-1.29447 0.32813,-1.84863 0.29896,-0.56146 0.71133,-1.04626 1.23633,-1.45459 0.525,-0.41563 1.14133,-0.73637 1.84863,-0.9624 0.70729,-0.22602 1.42562,-0.35459 2.15479,-0.38379 1.11562,-0.0219 2.04089,0.0993 2.77734,0.36181 0.74375,0.2625 1.33053,0.64089 1.76074,1.13672 0.4375,0.48854 0.74789,1.06794 0.93017,1.73877 0.1823,0.67084 0.27393,1.39359 0.27393,2.1665 v 4.75781 l -7.01074,1.40039 c -1.91042,0.38646 -3.58503,0.95108 -5.02148,1.69483 -1.43646,0.73646 -2.63958,1.60703 -3.60938,2.61328 -0.51403,0.52949 -0.95578,1.0921 -1.33447,1.6831 v 10.30225 c 0.25397,0.31763 0.52508,0.61109 0.82178,0.86719 0.7,0.59062 1.47894,1.02073 2.33935,1.29052 0.86772,0.27708 1.71462,0.41602 2.53857,0.41602 0.72917,0 1.53028,-0.11675 2.40528,-0.3501 0.41974,-0.10843 0.85153,-0.24753 1.29492,-0.41308 0.002,-1.33458 0.14114,-2.64895 0.40284,-3.94482 -0.71639,0.16942 -1.41288,0.25635 -2.09034,0.25635 -0.29895,-2e-5 -0.66106,-0.0547 -1.08399,-0.16407 -0.41562,-0.11667 -0.82356,-0.33984 -1.2246,-0.66797 -0.40104,-0.32812 -0.73952,-0.77598 -1.01661,-1.34473 -0.26978,-0.57603 -0.40575,-1.31949 -0.40575,-2.23095 0,-0.93333 0.17145,-1.82754 0.51415,-2.68067 0.34271,-0.85312 0.87923,-1.63353 1.6084,-2.34082 0.72918,-0.70729 1.65885,-1.32363 2.78907,-1.84863 1.13021,-0.525 2.46784,-0.92112 4.01367,-1.19091 l 4.06933,-0.7881 v 1.67725 c 0.49149,-0.33847 1.0459,-0.67039 1.66553,-0.99463 0.62709,-0.33541 1.28334,-0.62659 1.96875,-0.87451 0.50288,-0.18188 1.0005,-0.32682 1.4956,-0.4541 v -8.03906 c 0,-2.34792 -0.67842,-4.17331 -2.03466,-5.47851 -1.35626,-1.3125 -3.28806,-1.96875 -5.79639,-1.96875 z m 27.23877,0 c -1.29792,0 -2.55573,0.19954 -3.77343,0.60058 -1.21771,0.39375 -2.29965,0.97019 -3.24756,1.72852 -0.94792,0.75103 -1.70616,1.68073 -2.27491,2.78906 -0.56874,1.10104 -0.854,2.35589 -0.854,3.76318 0,1.09375 0.21136,2.06335 0.63428,2.90918 0.42292,0.84584 0.98161,1.61146 1.67431,2.29687 0.69271,0.67813 1.48346,1.29005 2.37305,1.83692 0.88958,0.54687 1.81188,1.06123 2.76709,1.54248 0.70112,0.36517 1.38206,0.71002 2.06689,1.05908 v -0.67236 c 1.48021,-0.38646 2.93164,-0.77962 4.35352,-1.18066 0.74488,-0.20903 1.44822,-0.45133 2.11377,-0.72364 -0.32821,-0.2221 -0.66501,-0.43682 -1.01954,-0.63721 -0.99895,-0.56875 -1.98775,-1.10527 -2.96484,-1.6084 -0.9552,-0.50312 -1.8849,-0.98792 -2.78906,-1.45458 -0.89687,-0.46667 -1.69944,-0.95443 -2.40674,-1.46485 -0.70729,-0.51041 -1.27929,-1.05729 -1.7168,-1.64062 -0.4302,-0.58333 -0.64452,-1.23958 -0.64452,-1.96875 0,-0.47396 0.10937,-0.95137 0.32812,-1.43262 0.21875,-0.48125 0.53506,-0.91875 0.95069,-1.3125 0.42291,-0.40104 0.92988,-0.72621 1.5205,-0.97412 0.59792,-0.25521 1.2719,-0.38233 2.02295,-0.38233 1.11563,0 2.2611,0.32371 3.43506,0.97266 1.17395,0.64896 2.30761,1.79444 3.40137,3.43506 l 1.33447,0.27393 c 0.13855,-0.1823 0.33216,-0.52224 0.58007,-1.01807 0.24792,-0.50313 0.48146,-1.03819 0.7002,-1.60693 0.21876,-0.56876 0.37839,-1.09493 0.48047,-1.57617 0.10207,-0.48126 0.0843,-0.78721 -0.0542,-0.91846 -0.45208,-0.41563 -1.04329,-0.7807 -1.77246,-1.09424 -0.72917,-0.32083 -1.51253,-0.59427 -2.35107,-0.82031 -0.83125,-0.23333 -1.67373,-0.41071 -2.52686,-0.53467 -0.85312,-0.12397 -1.63354,-0.18603 -2.34082,-0.18603 z m 46.00635,0 c -1.29792,0 -2.55573,0.19954 -3.77344,0.60058 -1.21771,0.39375 -2.30111,0.97019 -3.24902,1.72852 -0.94791,0.75103 -1.70615,1.68073 -2.2749,2.78906 -0.56875,1.10104 -0.85254,2.35589 -0.85254,3.76318 0,1.09375 0.21137,2.06335 0.63428,2.90918 0.42293,0.84584 0.98014,1.61146 1.67284,2.29687 0.49343,0.48304 1.03968,0.93139 1.63331,1.34766 0.11257,-0.0273 0.22623,-0.062 0.33838,-0.0864 0.67083,-0.15312 1.31526,-0.22851 1.93506,-0.22851 1.50208,0 2.82639,0.20397 3.97119,0.6123 1.15207,0.40834 2.16158,0.9626 3.02929,1.6626 0.86771,0.69271 1.59639,1.50121 2.18701,2.42725 0.59063,0.91875 1.07542,1.89277 1.45459,2.9209 0.37916,1.02083 0.64521,2.06286 0.79834,3.12744 0.16042,1.05729 0.2417,2.06383 0.2417,3.01904 -0.40834,0.45938 -0.95521,0.8821 -1.64062,1.26856 -0.67813,0.38646 -1.38315,0.72936 -2.11231,1.02832 h -14.20898 c 0.0394,0.0777 0.0829,0.13743 0.13183,0.15966 1.53126,0.83855 3.06547,1.46228 4.60401,1.87061 1.53854,0.41562 2.85546,0.62402 3.94922,0.62402 0.43021,0 1.02438,-0.0414 1.78271,-0.12158 0.76563,-0.0802 1.5815,-0.24723 2.44922,-0.50244 0.86771,-0.247921 1.74714,-0.60856 2.63673,-1.08252 0.88958,-0.48125 1.69808,-1.11976 2.42723,-1.91455 0.72918,-0.80208 1.32038,-1.77907 1.77247,-2.93116 0.45938,-1.15207 0.68848,-2.53404 0.68848,-4.1455 0,-1.27604 -0.25127,-2.38753 -0.75439,-3.33545 -0.50313,-0.94791 -1.15496,-1.7904 -1.95704,-2.52686 -0.79479,-0.74375 -1.69639,-1.4 -2.70263,-1.96875 -0.99896,-0.56875 -1.98629,-1.10527 -2.96338,-1.6084 -0.95521,-0.50312 -1.8849,-0.98792 -2.78906,-1.45458 -0.89687,-0.46667 -1.69945,-0.95443 -2.40674,-1.46485 -0.7073,-0.51041 -1.2793,-1.05729 -1.7168,-1.64062 -0.4302,-0.58333 -0.64599,-1.23958 -0.64599,-1.96875 0,-0.47396 0.10937,-0.95137 0.32812,-1.43262 0.21875,-0.48125 0.53652,-0.91875 0.95215,-1.3125 0.42292,-0.40104 0.92988,-0.72621 1.52051,-0.97412 0.59792,-0.25521 1.27191,-0.38233 2.02295,-0.38233 1.11562,0 2.26109,0.32371 3.43505,0.97266 1.17396,0.64896 2.30762,1.79444 3.40137,3.43506 l 1.33447,0.27393 c 0.13855,-0.1823 0.33071,-0.52224 0.57862,-1.01807 0.24792,-0.50313 0.48145,-1.03819 0.70019,-1.60693 0.21875,-0.56876 0.37985,-1.09493 0.48194,-1.57617 0.10207,-0.48126 0.0843,-0.78721 -0.0542,-0.91846 -0.45207,-0.41563 -1.04329,-0.7807 -1.77246,-1.09424 -0.72916,-0.32083 -1.51252,-0.59427 -2.35107,-0.82031 -0.83124,-0.23333 -1.67373,-0.41071 -2.52685,-0.53467 -0.85313,-0.12397 -1.63354,-0.18603 -2.34082,-0.18603 z m 31.9248,0 c -1.43646,0 -2.92337,0.23945 -4.46191,0.7207 -1.53855,0.47396 -2.99736,1.11246 -4.37549,1.91455 -0.10287,0.0593 -0.19913,0.12382 -0.3003,0.18457 v 5.84472 c 0.36469,-0.21975 0.5491,-0.4215 0.53028,-0.60351 -0.0729,-0.67813 0.0365,-1.29447 0.32813,-1.84863 0.29895,-0.56146 0.71132,-1.04626 1.23632,-1.45459 0.525,-0.41563 1.14134,-0.73637 1.84864,-0.9624 0.70729,-0.22602 1.42415,-0.35459 2.15331,-0.38379 1.11562,-0.0219 2.04235,0.0993 2.77881,0.36181 0.74376,0.2625 1.33054,0.64089 1.76075,1.13672 0.4375,0.48854 0.74788,1.06794 0.93017,1.73877 0.18229,0.67084 0.27246,1.39359 0.27246,2.1665 v 4.75781 l -7.01074,1.40039 c -1.82879,0.36995 -3.43368,0.90815 -4.82813,1.60548 v 4.52783 c 0.27248,-0.40117 0.59429,-0.78422 0.96827,-1.14698 0.72916,-0.70729 1.65885,-1.32363 2.78906,-1.84863 1.1302,-0.525 2.46784,-0.92112 4.01367,-1.19091 l 4.06787,-0.7881 v 7.42237 c 0.55808,-1.00384 1.20095,-1.94672 1.93506,-2.82422 0.93333,-1.12292 1.99456,-2.09251 3.18311,-2.90918 0.004,-0.003 0.008,-0.005 0.0117,-0.007 v -10.3667 c 0,-2.34792 -0.67695,-4.17331 -2.0332,-5.47851 -1.35625,-1.3125 -3.28952,-1.96875 -5.79785,-1.96875 z m -185.150385,3.55371 c 0.97709,0 1.83731,0.14928 2.58106,0.44824 0.74375,0.29166 1.3734,0.67151 1.89111,1.13818 0.525,0.46667 0.95215,0.99877 1.28028,1.59668 0.33541,0.59063 0.5985,1.18923 0.78808,1.79444 0.19687,0.59791 0.32695,1.18469 0.39258,1.76073 0.0729,0.56875 0.10986,1.05651 0.10986,1.46485 0,0.48125 -0.0872,0.80642 -0.2622,0.97412 -0.16771,0.16771 -0.51358,0.25195 -1.03858,0.25196 h -14.59131 c 0.22605,-1.4073 0.59408,-2.6917 1.1045,-3.85108 0.5177,-1.16667 1.15621,-2.15843 1.91455,-2.9751 0.76562,-0.82396 1.63619,-1.46101 2.61328,-1.91308 0.98437,-0.45938 2.05742,-0.68994 3.21679,-0.68994 z m 170.882805,3.99316 c -0.23689,0.37378 -0.45415,0.75137 -0.62842,1.13672 l 0.47022,1.33447 c 0.0395,0.009 0.1112,0.003 0.1582,0.009 z m -83.07129,11.2749 c -0.59317,0.11398 -1.16311,0.28976 -1.70361,0.54199 -0.97708,0.45208 -1.84912,1.08913 -2.61474,1.91309 -0.29001,0.31231 -0.55689,0.65895 -0.81153,1.02246 v 2.7583 c -0.6397,0.55369 -1.26193,1.03296 -1.875,1.47656 -0.12955,0.50638 -0.24382,1.02575 -0.33105,1.56885 h 2.02002 c 0.0621,-0.0611 0.12395,-0.11809 0.18603,-0.18017 0.002,0.0634 0.008,0.11766 0.0103,0.18017 h 5.25 c -0.0831,-0.36957 -0.13038,-0.81965 -0.13038,-1.37256 z m 28.31837,0.0747 0.29882,5.18115 c 0.3107,-0.63618 0.63421,-1.2509 0.97119,-1.8457 -0.0937,-0.90106 -0.32965,-1.70963 -0.70898,-2.42432 -0.1682,-0.31689 -0.35954,-0.61782 -0.56103,-0.91113 z m -77.901855,0.35156 c -0.64593,0.0579 -1.31999,0.25423 -2.02734,0.60791 -0.83855,0.42291 -1.70319,1.02744 -2.59278,1.81494 -0.0504,0.0442 -0.10046,0.0953 -0.15087,0.14063 0.24604,0.26343 0.4736,0.53386 0.66942,0.81738 0.48855,0.70728 0.73389,1.51725 0.73389,2.42871 0,0.79479 -0.13892,1.5279 -0.41601,2.19873 -0.26979,0.67084 -0.65703,1.24581 -1.16016,1.72705 -0.49583,0.48125 -1.08557,0.85371 -1.77099,1.11621 -0.68542,0.25521 -1.43627,0.38233 -2.25294,0.38233 -0.33384,0 -0.65846,-0.0182 -0.97851,-0.0469 v 3.37647 c 0.30798,-0.0203 0.65598,-0.0501 1.05469,-0.0923 0.76562,-0.0802 1.58298,-0.24723 2.45068,-0.502441 0.86771,-0.247919 1.74567,-0.608559 2.63526,-1.082519 0.88958,-0.48125 1.69954,-1.11976 2.42871,-1.91455 0.72916,-0.80208 1.31891,-1.77907 1.77099,-2.93116 0.45938,-1.15207 0.68995,-2.53404 0.68995,-4.1455 0,-1.27604 -0.25274,-2.38753 -0.75587,-3.33545 -0.10177,-0.19175 -0.21416,-0.37645 -0.32812,-0.559571 z m 69.902335,0.0893 c 0.79933,0.42948 1.54378,0.87791 2.1958,1.35645 0.28944,0.2105 0.55135,0.43269 0.79981,0.65918 -6.8e-4,-0.003 -7.9e-4,-0.007 -0.001,-0.0103 -0.0656,-0.32084 -0.14985,-0.5721 -0.25196,-0.7544 -0.10208,-0.18229 -0.19668,-0.33157 -0.28418,-0.44824 -0.16042,-0.16041 -0.33926,-0.29196 -0.53613,-0.39405 -0.18959,-0.10207 -0.44086,-0.18632 -0.7544,-0.25194 -0.30624,-0.0656 -0.67724,-0.11587 -1.11474,-0.15235 -0.0142,-10e-4 -0.0383,-0.003 -0.0527,-0.004 z m 62.75244,1.61719 c -0.33858,0.52703 -0.62734,1.07644 -0.8584,1.65235 -0.48854,1.21771 -0.73242,2.50211 -0.73242,3.85107 0,1.3198 0.22468,2.44606 0.67676,3.37939 0.26448,0.53736 0.57214,1.01232 0.91406,1.43848 z m 22.09863,1.35645 c -0.40821,0.58394 -0.77668,1.22531 -1.09423,1.94092 -0.51042,1.15938 -0.87846,2.44378 -1.1045,3.85107 h 2.3291 c -0.0831,-0.36957 -0.13037,-0.81965 -0.13037,-1.37256 z m -173.740705,0.83203 c -0.16042,0.51771 -0.29196,1.22125 -0.39405,2.11084 -0.10208,0.88958 -0.17008,1.77639 -0.20654,2.65869 -0.0292,0.87501 -0.0188,1.64802 0.0322,2.31885 0.0583,0.67083 0.16771,1.04183 0.32813,1.11474 1.38094,0.75624 2.76459,1.328 4.15136,1.73438 v -4.76953 c -0.69289,-0.61289 -1.26001,-1.30904 -1.69042,-2.09473 -0.45209,-0.84583 -0.70039,-1.74596 -0.74415,-2.70117 z m 124.141105,0 c -0.16042,0.51771 -0.29196,1.22125 -0.39405,2.11084 -0.10207,0.88958 -0.17154,1.77639 -0.208,2.65869 -0.002,0.0674 3e-4,0.12426 -0.001,0.19043 h 4.28907 c -0.58988,-0.56186 -1.08231,-1.18844 -1.46485,-1.88672 -0.4521,-0.84583 -0.70041,-1.74596 -0.74414,-2.70117 z m -131.937005,1.7857 c -0.80397,1.01968 -1.62659,2.14307 -2.47852,3.41455 v 1.32422 c 1.02638,-0.94365 2.18119,-2.10644 3.48047,-3.51708 -0.11667,-0.1823 -0.28515,-0.42176 -0.5039,-0.72071 -0.14331,-0.20261 -0.31441,-0.36174 -0.49805,-0.50098 z m 175.281725,1.04883 c -1.3213,1.03433 -2.5837,1.83064 -3.78514,2.37159 -1.53125,0.6927 -2.98269,1.04004 -4.35353,1.04004 -0.29896,-2e-5 -0.6596,-0.0547 -1.08251,-0.16407 -0.41564,-0.11667 -0.82358,-0.33984 -1.22461,-0.66797 -0.0931,-0.0762 -0.18154,-0.15989 -0.26807,-0.24902 v 5.50927 c 0.18831,0.0142 0.37639,0.0234 0.5625,0.0234 0.72917,0 1.53174,-0.11675 2.40674,-0.3501 0.875,-0.22603 1.80173,-0.57633 2.77881,-1.05029 0.98438,-0.48125 1.98649,-1.09759 3.00732,-1.84863 0.30204,-0.22064 0.60336,-0.45709 0.90528,-0.70166 0.071,-0.43762 0.15312,-0.87344 0.25342,-1.30664 0.20822,-0.89935 0.47872,-1.76591 0.7998,-2.60596 z m -84.76024,2.86963 c 3e-5,0.0138 0.001,0.0287 0.001,0.0425 -0.40833,0.45938 -0.9552,0.8821 -1.64063,1.26856 -0.67813,0.38646 -1.38167,0.72936 -2.11084,1.02832 h -1.21288 c 0.0394,0.0777 0.0829,0.13743 0.13183,0.15966 1.53126,0.83855 3.06546,1.46228 4.60401,1.87061 1.53854,0.41562 2.85546,0.62402 3.94922,0.62402 0.4302,0 1.02438,-0.0414 1.78271,-0.12158 0.76563,-0.0802 1.58298,-0.24723 2.45068,-0.50244 0.47749,-0.13643 0.95894,-0.31523 1.44288,-0.52002 v -3.6665 c -0.48494,0.45729 -1.05513,0.81593 -1.7168,1.06933 -0.68541,0.25521 -1.43626,0.38233 -2.25293,0.38233 -1.18855,0 -2.28968,-0.18181 -3.30322,-0.54639 -0.78315,-0.28171 -1.4903,-0.64556 -2.12549,-1.08838 z m -18.85108,2.33936 c 0.1104,0.39185 0.23401,0.75943 0.38673,1.07812 0.50312,1.05 1.1298,1.576169 1.88085,1.576169 0.63438,0 1.58181,-0.302989 2.84327,-0.908199 0.85735,-0.40897 1.88143,-1.000651 3.0454,-1.74609 z m 107.42724,0 v 0.0981 c 0,0.86129 0.0601,1.70699 0.17872,2.53857 0.62992,-0.0436 1.5133,-0.33265 2.67627,-0.89062 0.85753,-0.409051 1.88155,-1.00042 3.04541,-1.74609 z" />
  </g>
  <g
     inkscape:groupmode="layer"
     id="layer2"
     inkscape:label="Middle"
     style="display:inline">
    <use
       xlink:href="#Gentium-97"
       id="use40"
       x="0"
       y="0"
       width="100%"
       height="100%"
       style="fill:#000000;fill-opacity:0.1"
       transform="matrix(0.7,0,0,-0.7,16.11875,68.10125)" />
    <use
       x="45.898438"
       xlink:href="#Gentium-109"
       id="use42"
       y="0"
       width="100%"
       height="100%"
       style="fill:#000000;fill-opacity:0.1"
       transform="matrix(0.7,0,0,-0.7,16.11875,68.10125)" />
    <use
       x="126.2207"
       xlink:href="#Gentium-108"
       id="use44"
       y="0"
       width="100%"
       height="100%"
       style="fill:#000000;fill-opacity:0.1"
       transform="matrix(0.7,0,0,-0.7,16.11875,68.10125)" />
    <use
       x="153.32031"
       xlink:href="#Gentium-101"
       id="use46"
       y="0"
       width="100%"
       height="100%"
       style="fill:#000000;fill-opacity:0.1"
       transform="matrix(0.7,0,0,-0.7,16.11875,68.10125)" />
    <use
       x="199.51172"
       xlink:href="#Gentium-114"
       id="use48"
       y="0"
       width="100%"
       height="100%"
       style="fill:#ff0000;fill-opacity:0.104839"
       transform="matrix(0.7,0,0,-0.7,16.11875,68.10125)" />
    <use
       x="237.61133"
       xlink:href="#Gentium-101"
       id="use50"
       y="0"
       width="100%"
       height="100%"
       style="fill:#000000;fill-opacity:0.1"
       transform="matrix(0.7,0,0,-0.7,16.11875,68.10125)" />
    <use
       x="283.80273"
       xlink:href="#Gentium-108"
       id="use52"
       y="0"
       width="100%"
       height="100%"
       style="fill:#000000;fill-opacity:0.1"
       transform="matrix(0.7,0,0,-0.7,16.11875,68.10125)" />
    <use
       x="310.90234"
       xlink:href="#Gentium-101"
       id="use54"
       y="0"
       width="100%"
       height="100%"
       style="fill:#ff0000;fill-opacity:0.104839"
       transform="matrix(0.7,0,0,-0.7,16.11875,68.10125)" />
  </g>
  <g
     inkscape:groupmode="layer"
     id="layer1"
     inkscape:label="Front"
     style="display:inline">
    <g
       id="text_3"
       transform="translate(-1.88125,-7.49875)">
      <!-- re -->
      <g
         style="fill:#ff0000"
         transform="matrix(0.7,0,0,-0.7,0,90.72)"
         id="g78">
        <use
           xlink:href="#Gentium-114"
           id="use74"
           x="0"
           y="0"
           width="100%"
           height="100%" />
        <use
           x="38.099609"
           xlink:href="#Gentium-101"
           id="use76"
           y="0"
           width="100%"
           height="100%" />
      </g>
    </g>
    <g
       id="text_4"
       transform="translate(-1.88125,-7.49875)"
       style="fill:#333333;fill-opacity:1">
      <!-- sample -->
      <g
         style="fill:#333333;fill-opacity:1"
         transform="matrix(0.7,0,0,-0.7,61.2,90.72)"
         id="g96">
        <defs
           id="defs82">
          <path
             d="m 42.53125,20.796875 q 0,4.25 -1,7.90625 -1,3.671875 -2.6875,6.328125 -1.6875,2.671875 -3.890625,4.171875 -2.1875,1.515625 -4.53125,1.515625 -0.875,0 -2.296875,-0.53125 -1.421875,-0.53125 -3.234375,-1.78125 -1.796875,-1.25 -3.84375,-3.375 Q 19,32.90625 16.84375,29.78125 v -19.375 q 2.203125,-1.671875 4.078125,-2.75 1.875,-1.0625 3.515625,-1.671875 Q 26.078125,5.375 27.53125,5.125 29,4.890625 30.328125,4.890625 q 2.625,0 4.84375,1.015625 2.234375,1.03125 3.859375,3.03125 1.640625,2 2.5625,4.96875 0.9375,2.984375 0.9375,6.890625 z m 6.5,3.234375 q 0,-2.84375 -0.71875,-5.828125 -0.703125,-2.96875 -2,-5.796875 Q 45.015625,9.578125 43.28125,7.03125 41.546875,4.5 39.46875,2.609375 q -2.0625,-1.875 -4.359375,-2.96875 -2.296875,-1.109375 -4.6875,-1.109375 -2.875,0 -6.5,1.609375 -3.609375,1.625 -7.078125,4.640625 V -18.3125 q 0,-0.78125 1.828125,-1.5625 1.84375,-0.78125 6.421875,-1.46875 V -23.4375 H 2.6875 v 2.09375 q 3.21875,0.78125 5.015625,1.5 1.8125,0.703125 1.8125,1.53125 v 53.03125 q 0,1.8125 -0.203125,2.984375 Q 9.125,38.875 8.421875,39.578125 7.71875,40.28125 6.375,40.59375 5.03125,40.921875 2.6875,41.015625 v 1.953125 q 1.65625,0.34375 3.171875,0.75 1.515625,0.421875 2.921875,0.875 1.421875,0.46875 2.8125,1.03125 1.390625,0.5625 2.8125,1.25 L 16.109375,45.171875 16.546875,35.5 q 2.453125,2.921875 4.90625,5.0625 2.46875,2.15625 4.71875,3.546875 2.25,1.40625 4.171875,2.078125 1.9375,0.6875 3.34375,0.6875 3.328125,0 6.125,-1.5625 2.8125,-1.5625 4.859375,-4.515625 2.0625,-2.953125 3.203125,-7.203125 1.15625,-4.25 1.15625,-9.5625 z"
             id="Gentium-112" />
        </defs>
        <use
           xlink:href="#Gentium-115"
           id="use84"
           x="0"
           y="0"
           width="100%"
           height="100%"
           style="fill:#333333;fill-opacity:1" />
        <use
           x="38.623047"
           xlink:href="#Gentium-97"
           id="use86"
           y="0"
           width="100%"
           height="100%"
           style="fill:#333333;fill-opacity:1" />
        <use
           x="84.521484"
           xlink:href="#Gentium-109"
           id="use88"
           y="0"
           width="100%"
           height="100%"
           style="fill:#333333;fill-opacity:1" />
        <use
           x="164.84375"
           xlink:href="#Gentium-112"
           id="use90"
           y="0"
           width="100%"
           height="100%"
           style="fill:#333333;fill-opacity:1" />
        <use
           x="217.82227"
           xlink:href="#Gentium-108"
           id="use92"
           y="0"
           width="100%"
           height="100%"
           style="fill:#333333;fill-opacity:1" />
        <use
           x="244.92188"
           xlink:href="#Gentium-101"
           id="use94"
           y="0"
           width="100%"
           height="100%"
           style="fill:#333333;fill-opacity:1" />
      </g>
    </g>
  </g>
</svg>
